<svg width="173" height="46" viewBox="0 0 173 46" fill="none" xmlns="http://www.w3.org/2000/svg">
<path d="M36.4551 2.22379C36.226 2.11015 35.9969 2.33742 35.9969 2.56469V6.08731C35.9969 6.31458 36.1114 6.65548 36.4551 6.76911C39.2049 8.35998 41.3817 10.7463 42.4129 13.7007C45.048 21.0869 40.3506 29.6094 31.7577 33.5865C31.5286 33.7002 31.1848 33.4729 31.1848 33.2457V9.95084C31.1848 9.72358 30.9557 9.38268 30.612 9.38268C27.8623 8.92815 24.998 8.92815 22.0191 9.72358C21.6754 9.83721 21.5608 10.0645 21.5608 10.2917V44.4953C21.5608 44.8362 21.9045 45.1771 22.2482 45.1771C25.5708 45.2908 29.008 44.7226 32.3306 43.5863C45.3917 38.9273 52.4952 25.8595 48.3706 14.3825C46.3083 8.70088 41.9546 4.49645 36.4551 2.22379ZM22.1337 4.95098C25.1125 4.26918 27.9768 4.15555 30.7265 4.72372C30.9557 4.72372 31.1848 4.61008 31.1848 4.38282V0.973821C31.1848 0.746554 31.0703 0.632921 30.8411 0.519288C27.9768 0.064755 24.998 0.064755 21.9045 0.632921C21.6754 0.632921 21.5608 0.860187 21.5608 1.08745V4.61008C21.5608 4.83735 21.79 5.06462 22.1337 4.95098ZM63.4941 11.769H59.7132C59.3695 11.769 59.1404 11.9962 59.1404 12.3371V33.0184C59.1404 33.3593 59.3695 33.5865 59.7132 33.5865H63.4941C63.8378 33.5865 64.0669 33.3593 64.0669 33.0184V12.3371C64.0669 12.1099 63.8378 11.769 63.4941 11.769ZM16.1759 2.33742C3.80218 7.22365 -2.84298 19.9506 1.16703 31.0866C3.57304 37.6773 9.18706 42.3363 15.9468 44.1544C16.4051 44.2681 16.7488 43.9272 16.7488 43.5863V35.4047C16.7488 35.0638 16.5197 34.7229 16.1759 34.6092C11.9368 33.132 8.6142 30.2912 7.23934 26.314C4.60419 19.3824 8.6142 11.3144 16.2905 7.22365C16.5197 7.11001 16.6342 6.88275 16.6342 6.54185V2.67832C16.7488 2.45105 16.4051 2.22379 16.1759 2.33742ZM111.156 11.769H106.917C106.688 11.769 106.459 11.9962 106.344 12.1099L101.188 23.4732H100.959L95.8033 12.1099C95.6888 11.9962 95.5742 11.769 95.2305 11.769H90.9913C90.533 11.769 90.3039 12.2235 90.4184 12.5644L100.272 33.5865C100.386 33.8138 100.501 33.9274 100.844 33.9274H101.188C101.417 33.9274 101.646 33.8138 101.761 33.5865L111.614 12.5644C111.843 12.2235 111.614 11.769 111.156 11.769ZM149.537 22.4505H143.236C142.892 22.4505 142.663 22.6778 142.663 23.0187V26.0868C142.663 26.4277 142.892 26.6549 143.236 26.6549H145.184V28.4731C144.267 28.814 143.236 28.9276 142.434 28.9276C138.997 28.9276 136.247 26.0868 136.247 22.6778C136.247 19.2688 138.997 16.3143 142.434 16.3143C143.923 16.3143 145.413 16.7688 146.559 17.7915C146.788 18.0188 147.131 18.0188 147.361 17.7915L149.881 15.178C150.11 14.9507 150.11 14.4962 149.767 14.3825C147.59 12.5644 144.725 11.4281 142.09 11.4281C135.789 11.4281 130.748 16.4279 130.748 22.6778C130.748 28.9276 135.789 33.8138 142.09 33.8138C146.673 33.8138 149.881 31.7684 149.881 31.7684C149.996 31.6548 150.11 31.5412 150.11 31.3139V22.905C150.11 22.6778 149.767 22.4505 149.537 22.4505ZM87.4396 11.769H83.6587C83.315 11.769 83.0859 11.9962 83.0859 12.3371V23.4732L70.9412 11.9962C70.7121 11.769 70.483 11.5417 70.1392 11.5417H69.681C69.3372 11.5417 69.1081 11.769 69.1081 12.1099V33.132C69.1081 33.4729 69.3372 33.7002 69.681 33.7002H73.4618C73.8055 33.7002 74.0347 33.4729 74.0347 33.132V21.4278L86.2939 33.7002C86.523 33.9274 86.7522 34.0411 87.0959 34.0411H87.4396C87.7833 34.0411 88.0124 33.8138 88.0124 33.4729V12.3371C88.0124 12.1099 87.7833 11.769 87.4396 11.769ZM172.91 32.9048L163.057 11.8826C162.942 11.6553 162.713 11.5417 162.484 11.5417H162.14C161.911 11.5417 161.682 11.6553 161.568 11.8826L151.714 32.9048C151.485 33.3593 151.829 33.7002 152.287 33.7002H155.724C156.412 33.7002 156.755 33.3593 156.87 32.9048L158.016 30.4048H166.609L167.754 32.9048C167.984 33.4729 168.327 33.7002 168.9 33.7002H172.452C172.91 33.7002 173.139 33.2457 172.91 32.9048ZM159.964 26.2004L162.37 21.0869L164.776 26.2004H159.964ZM127.769 11.769H114.708C114.364 11.769 114.135 11.9962 114.135 12.3371V33.0184C114.135 33.3593 114.364 33.5865 114.708 33.5865H127.769C128.113 33.5865 128.342 33.3593 128.342 33.0184V29.6094C128.342 29.2685 128.113 29.0412 127.769 29.0412H119.061V24.8368H126.279C126.623 24.8368 126.852 24.6095 126.852 24.2686V20.8596C126.852 20.5187 126.623 20.2915 126.279 20.2915H119.061V16.4279H127.769C128.113 16.4279 128.342 16.2007 128.342 15.8598V12.4508C128.342 12.1099 128.113 11.769 127.769 11.769Z" fill="white"/>
</svg>
