<svg width="113" height="73" viewBox="0 0 113 73" fill="none" xmlns="http://www.w3.org/2000/svg">
<g clip-path="url(#clip0_259_1505)">
<path d="M15.5168 29.0273V41.4727L21.3451 33.6419H25.1282L19.8534 40.5716L25.6203 49.6454H21.6835L17.5467 42.809L15.5168 45.0308V49.6609H11.9951V29.0273H15.5168Z" fill="white"/>
<path d="M35.447 36.9216H31.8639V45.0632C31.8639 46.5703 32.6174 47.2384 33.8015 47.2384C34.2583 47.2322 34.7104 47.1483 35.1394 46.9898L35.447 49.165C34.5581 49.6467 33.5647 49.8922 32.5559 49.8797C29.5571 49.8797 28.3422 48.1085 28.3422 44.9078V37.077L26.4353 36.5643V34.3424L28.5268 34.187L29.4341 30.6445H31.8639V34.2958H35.447V36.9216Z" fill="white"/>
<path d="M47.0271 33.6425H50.4872V49.6459H47.4115L47.2577 48.1388C46.1182 49.3305 44.5296 49.9738 42.8903 49.9101C39.6762 49.9101 37.8616 47.5795 37.8616 43.8661V33.6425H41.3832V43.9127C41.3832 46.0257 42.2598 47.1289 44.0129 47.1289C45.2032 47.1444 46.3289 46.5851 47.0424 45.6218V33.627L47.0271 33.6425Z" fill="white"/>
<path d="M73.9543 34.4991H72.6625V39.1603H71.3707V34.4991H70.7095V33.5668H71.3707V33.4425C71.3707 32.2772 72.0166 31.6091 73.8313 31.5625L73.8928 32.4171C72.8778 32.4637 72.601 32.7433 72.601 33.4425V33.5668H73.9543V34.4991Z" fill="white"/>
<path d="M79.2292 37.1379C79.2292 38.3343 78.4295 39.2665 76.9071 39.2665C75.3846 39.2665 74.585 38.3343 74.585 37.1379V35.32C74.585 34.1236 75.3693 33.1914 76.9071 33.1914C78.4449 33.1914 79.2292 34.1081 79.2292 35.32V37.1379ZM75.8614 37.0757C75.8614 37.8371 76.1997 38.2721 76.9071 38.2721C77.6145 38.2721 77.9528 37.8215 77.9528 37.0757V35.3666C77.9528 34.6053 77.6299 34.1703 76.9071 34.1703C76.1843 34.1703 75.8614 34.6053 75.8614 35.3666V37.0757Z" fill="white"/>
<path d="M84.7961 37.1379C84.7961 38.3343 83.9964 39.2665 82.4586 39.2665C80.9208 39.2665 80.1519 38.3343 80.1519 37.1379V35.32C80.1519 34.1236 80.9362 33.1914 82.4586 33.1914C83.9811 33.1914 84.7961 34.1081 84.7961 35.32V37.1379ZM81.4283 37.0757C81.4283 37.8371 81.7666 38.2721 82.4586 38.2721C83.1506 38.2721 83.5197 37.8215 83.5197 37.0757V35.3666C83.5197 34.6053 83.1968 34.1703 82.4586 34.1703C81.7204 34.1703 81.4283 34.6053 81.4283 35.3666V37.0757Z" fill="white"/>
<path d="M89.0558 33.7205V31.6074H90.3322V39.143H89.2096L89.1174 38.6148C88.7052 39.0483 88.1285 39.286 87.5334 39.2673C86.3493 39.2673 85.688 38.4128 85.688 37.0455V35.4296C85.688 34.0623 86.3493 33.2078 87.6103 33.2078C88.1378 33.1922 88.6529 33.3756 89.0558 33.7205ZM89.0558 34.777C88.8067 34.4321 88.4023 34.2332 87.9794 34.2488C87.3181 34.2488 86.9951 34.6372 86.9951 35.4607V37.0766C86.9951 37.8379 87.3181 38.2419 87.964 38.2419C88.3961 38.259 88.8067 38.0539 89.0558 37.6981V34.777Z" fill="white"/>
<path d="M72.5396 43.7275V49.3676H71.2632V43.7275H72.5396ZM72.4627 41.8164V42.9506H71.3401V41.8164H72.4627Z" fill="white"/>
<path d="M75.2461 49.3669H73.9697V43.4938H75.1231L75.1539 44.0687C75.5629 43.6181 76.1488 43.3726 76.7532 43.4006C77.9527 43.4006 78.5986 44.2396 78.5986 45.6069V49.3669H77.3222V45.6535C77.3222 44.8611 76.9993 44.4571 76.3534 44.4571C75.9166 44.4494 75.5029 44.6591 75.2461 45.0165V49.3669Z" fill="white"/>
<path d="M82.7663 45.0322C82.5925 44.5738 82.1435 44.2848 81.6591 44.3174C81.1055 44.3174 80.844 44.5816 80.844 44.9855C80.844 46.0732 83.5967 45.7158 83.5967 47.689C83.5967 48.7145 82.7817 49.4603 81.6129 49.4603C80.721 49.5318 79.886 49.0097 79.5522 48.1707L80.3365 47.7357C80.5549 48.2344 81.0424 48.556 81.5822 48.5591C81.9528 48.6166 82.305 48.3711 82.3819 47.9998C82.3942 47.933 82.4003 47.8662 82.3972 47.7978C82.3972 46.6325 79.6291 47.0365 79.6291 45.0788C79.6291 44.1465 80.3365 43.3852 81.6283 43.3852C82.4741 43.3432 83.2507 43.8575 83.5506 44.6593L82.7663 45.0322Z" fill="white"/>
<path d="M87.395 44.7058H86.0878V47.6889C86.014 48.0494 86.2431 48.4037 86.5999 48.4798C86.603 48.4798 86.6061 48.4798 86.6107 48.4813H86.7952C86.9628 48.4798 87.1305 48.4472 87.2873 48.3881L87.395 49.1805C87.072 49.3654 86.706 49.4618 86.3339 49.4602C85.2266 49.4602 84.796 48.8076 84.796 47.6268V44.7524L84.0886 44.5659V43.7425L84.8575 43.6958L85.1959 42.4062H86.0724V43.7269H87.395V44.7058Z" fill="white"/>
<path d="M89.7632 43.7275V49.3676H88.4868V43.7275H89.7632ZM89.6863 41.8164V42.9506H88.5637V41.8164H89.6863Z" fill="white"/>
<path d="M94.0078 44.7058H92.7006V47.6889C92.6268 48.0494 92.8559 48.4037 93.2127 48.4798C93.2158 48.4798 93.2189 48.4798 93.2235 48.4813H93.408C93.5756 48.4813 93.7432 48.4487 93.9001 48.3881L94.0078 49.1805C93.6848 49.3654 93.3188 49.4618 92.9467 49.4602C91.8394 49.4602 91.4088 48.8076 91.4088 47.6268V44.7524L90.7014 44.5659V43.7425L91.4703 43.6958L91.8087 42.4062H92.6852V43.7269H94.0078V44.7058Z" fill="white"/>
<path d="M98.2521 43.4941H99.5285V49.3673H98.3905L98.3444 48.8079C97.9292 49.2476 97.3463 49.4853 96.7451 49.4605C95.5763 49.4605 94.915 48.6215 94.915 47.2542V43.4941H96.1453V47.2852C96.1453 48.0621 96.4682 48.4661 97.1295 48.4661C97.5647 48.4661 97.9753 48.2594 98.2368 47.9067V43.4941H98.2521Z" fill="white"/>
<path d="M103.681 44.7058H102.358V47.6889C102.292 48.0572 102.532 48.4114 102.897 48.4813H103.066C103.233 48.4813 103.401 48.4503 103.558 48.3881L103.665 49.1805C103.343 49.3654 102.977 49.4618 102.604 49.4602C101.513 49.4602 101.067 48.8076 101.067 47.6268V44.7524L100.375 44.5659V43.7425L101.128 43.6958L101.482 42.4062H102.358V43.7269H103.665V44.7058H103.681Z" fill="white"/>
<path d="M105.741 46.6022V47.2858C105.741 48.0782 106.126 48.4978 106.849 48.4978C107.379 48.5117 107.848 48.1497 107.971 47.6277L108.879 47.9695C108.556 48.9794 107.879 49.4766 106.726 49.4766C105.265 49.4766 104.465 48.5599 104.465 47.3325V45.5146C104.465 44.3338 105.234 43.386 106.695 43.386C107.813 43.3067 108.783 44.1582 108.863 45.2877C108.863 45.2908 108.863 45.294 108.863 45.2971C108.879 45.3841 108.879 45.4742 108.863 45.5612V46.5867H105.741V46.6022ZM105.741 45.8253H107.725V45.4214C107.805 44.9211 107.47 44.4503 106.975 44.3695C106.964 44.3679 106.952 44.3664 106.941 44.3648H106.741C106.049 44.3648 105.741 44.7688 105.741 45.468V45.8253Z" fill="white"/>
<path d="M0 0.222656V72.1916H62.4053V0.222656H0ZM3.42937 3.68748H58.9913V68.7268H3.42937V3.68748Z" fill="white"/>
<path d="M11.8105 54.9903H110.078V53.2656H11.8105" fill="white"/>
<path d="M18.7308 60.7719C18.7308 62.8539 16.6086 62.9937 16.2857 64.2212H18.7308V65.2777H14.8862V64.7184C14.9631 62.7451 17.4698 62.046 17.4698 60.8341C17.5052 60.5093 17.2729 60.2188 16.9515 60.183C16.9454 60.183 16.9377 60.183 16.9315 60.1815C16.8762 60.1737 16.8177 60.1737 16.7624 60.1815C16.2687 60.2188 15.8766 60.615 15.8397 61.1137L14.8401 60.7719C15.0262 59.7899 15.8812 59.083 16.87 59.0939C18.1772 59.0939 18.7308 59.8863 18.7308 60.7719Z" fill="white"/>
<path d="M23.2059 60.7719C23.2059 62.8539 21.0837 62.9937 20.7608 64.2212H23.2213V65.2777H19.3767V64.7184C19.4536 62.7451 21.9603 62.046 21.9603 60.8341C21.9956 60.5093 21.7634 60.2188 21.442 60.183C21.4359 60.183 21.4282 60.183 21.422 60.1815C21.3651 60.1737 21.3082 60.1737 21.2529 60.1815C20.7592 60.2188 20.3671 60.615 20.3302 61.1137L19.3306 60.7719C19.5166 59.7899 20.3717 59.083 21.3605 59.0939C22.6677 59.0939 23.2059 59.8863 23.2059 60.7719Z" fill="white"/>
</g>
<defs>
<clipPath id="clip0_259_1505">
<rect width="113" height="72" fill="white" transform="translate(0 0.191406)"/>
</clipPath>
</defs>
</svg>
