<?xml version="1.0" encoding="utf-8"?>
<!-- Generator: Adobe Illustrator 19.2.1, SVG Export Plug-In . SVG Version: 6.00 Build 0)  -->
<svg version="1.1" id="Layer_1" xmlns="http://www.w3.org/2000/svg" xmlns:xlink="http://www.w3.org/1999/xlink" x="0px" y="0px"
	 viewBox="0 0 270.7 96.7" style="enable-background:new 0 0 270.7 96.7;" xml:space="preserve">
<style type="text/css">
	.st0{fill:#00A551;}
</style>
<g>
	<circle class="st0" cx="36.9" cy="31.1" r="5"/>
	<path class="st0" d="M9.2,69.5h4.3L4.9,65v0.2C4.9,67.6,6.8,69.5,9.2,69.5z"/>
	<polygon class="st0" points="68.9,47 18.8,69.5 26.2,69.5 68.9,50 	"/>
	<polygon class="st0" points="68.9,62 68.9,59 47.3,69.5 54.7,69.5 	"/>
	<polygon class="st0" points="68.9,53 33.1,69.5 40.5,69.5 68.9,56 	"/>
	<path class="st0" d="M68.9,65.3V65l-8.3,4.5h4C67,69.5,68.9,67.6,68.9,65.3z"/>
	<polygon class="st0" points="4.9,59 4.9,62 15.9,67.9 19.7,66.2 	"/>
	<path class="st0" d="M68.9,44v-7.3V17.5V9.8c0-2.3-1.9-4.3-4.3-4.3H53.5H25H9.2c-2.3,0-4.3,1.9-4.3,4.3v9.4V44l31.9,14.5L68.9,44z
		 M51.2,45.4c-0.3,0.3-0.7,0.4-1.1,0.4c-0.4,0-0.8-0.1-1.1-0.4l-4-4c-0.6-0.6-0.6-1.5,0-2.1c0.6-0.6,1.5-0.6,2.1,0l4,4
		C51.8,43.9,51.8,44.8,51.2,45.4z M55.6,29.6c0.8,0,1.5,0.7,1.5,1.5c0,0.8-0.7,1.5-1.5,1.5h-5.7c-0.8,0-1.5-0.7-1.5-1.5
		c0-0.8,0.7-1.5,1.5-1.5H55.6z M45.1,20.9l4-4c0.6-0.6,1.5-0.6,2.1,0c0.6,0.6,0.6,1.5,0,2.1l-4,4c-0.3,0.3-0.7,0.4-1.1,0.4
		c-0.4,0-0.8-0.1-1.1-0.4C44.5,22.4,44.5,21.4,45.1,20.9z M35.4,12.4c0-0.8,0.7-1.5,1.5-1.5c0.8,0,1.5,0.7,1.5,1.5v5.7
		c0,0.8-0.7,1.5-1.5,1.5c-0.8,0-1.5-0.7-1.5-1.5V12.4z M22.6,16.8c0.6-0.6,1.5-0.6,2.1,0l4,4c0.6,0.6,0.6,1.5,0,2.1
		c-0.3,0.3-0.7,0.4-1.1,0.4c-0.4,0-0.8-0.1-1.1-0.4l-4-4C22,18.4,22,17.4,22.6,16.8z M16.7,31.1c0-0.8,0.7-1.5,1.5-1.5h5.7
		c0.8,0,1.5,0.7,1.5,1.5c0,0.8-0.7,1.5-1.5,1.5h-5.7C17.4,32.6,16.7,32,16.7,31.1z M28.7,41.4l-4,4c-0.3,0.3-0.7,0.4-1.1,0.4
		c-0.4,0-0.8-0.1-1.1-0.4c-0.6-0.6-0.6-1.5,0-2.1l4-4c0.6-0.6,1.5-0.6,2.1,0C29.3,39.9,29.3,40.8,28.7,41.4z M28.9,31.1
		c0-4.4,3.6-8,8-8c4.4,0,8,3.6,8,8c0,4.4-3.6,8-8,8C32.5,39.1,28.9,35.5,28.9,31.1z M35.4,49.9v-5.7c0-0.8,0.7-1.5,1.5-1.5
		c0.8,0,1.5,0.7,1.5,1.5v5.7c0,0.8-0.7,1.5-1.5,1.5C36.1,51.4,35.4,50.7,35.4,49.9z"/>
	<polygon class="st0" points="26.7,63.1 4.9,53 4.9,56 23,64.7 	"/>
	<polygon class="st0" points="33.6,59.9 4.9,47 4.9,50 30,61.6 	"/>
	<path class="st0" d="M13.5,78.5h-1.2c-0.2,0-0.3,0.1-0.3,0.3v7.3c0,0.1,0,0.1-0.1,0.1c0,0-0.1,0-0.1-0.1l-3.3-7.2
		c-0.2-0.4-0.3-0.4-0.6-0.4H6.5C6.2,78.5,6,78.7,6,79v9.5c0,0.2,0.1,0.3,0.3,0.3h1.2c0.2,0,0.3-0.1,0.3-0.3v-7c0-0.1,0-0.1,0.1-0.1
		c0,0,0.1,0,0.1,0.1l3.1,6.8c0.2,0.5,0.5,0.5,0.9,0.5h1.4c0.3,0,0.6-0.3,0.6-0.6v-9.5C13.8,78.6,13.7,78.5,13.5,78.5z"/>
	<path class="st0" d="M22.4,79.8c-0.3-1.3-1.3-1.4-1.9-1.4c-0.6,0-1.6,0.1-1.9,1.4l-2.3,8.7c0,0,0,0.1,0,0.1c0,0.1,0.1,0.2,0.3,0.2
		H18c0.1,0,0.2-0.1,0.3-0.2l0.6-2.6h3.2l0.6,2.6c0,0.1,0.1,0.2,0.3,0.2h1.5c0.1,0,0.3-0.1,0.3-0.2c0,0,0,0,0-0.1L22.4,79.8z
		 M19.3,84.4l1-4.1c0-0.2,0.1-0.2,0.2-0.2c0.1,0,0.2,0.1,0.2,0.2l1,4.1H19.3z"/>
	<path class="st0" d="M32.9,78.6c-0.2-0.1-1.1-0.2-2.2-0.2c-1.7,0-3.9,0.8-3.9,4.3v2c0,3.4,2.3,4.3,3.9,4.3c1.1,0,2-0.2,2.2-0.2
		c0.2-0.1,0.3-0.1,0.3-0.3v-0.9c0-0.2-0.1-0.3-0.3-0.3c0,0,0,0,0,0c-0.5,0-1.4,0.1-2.2,0.1c-1.2,0-2-0.7-2-2.6v-2c0-2,0.9-2.6,2-2.6
		c0.7,0,1.7,0.1,2.2,0.1c0,0,0,0,0,0c0.2,0,0.3-0.1,0.3-0.3v-0.9C33.2,78.7,33,78.6,32.9,78.6z"/>
	<path class="st0" d="M37.4,78.5h-1.4c-0.2,0-0.3,0.1-0.3,0.3v9.8c0,0.2,0.1,0.3,0.3,0.3h1.4c0.2,0,0.3-0.1,0.3-0.3v-9.8
		C37.7,78.6,37.6,78.5,37.4,78.5z"/>
	<path class="st0" d="M44.5,78.4c-2.3,0-4,1.3-4,4.4v1.9c0,3.1,1.7,4.4,4,4.4c2.3,0,4-1.3,4-4.4v-1.9C48.5,79.6,46.8,78.4,44.5,78.4
		z M46.5,84.6c0,1.8-0.7,2.7-2,2.7c-1.4,0-2-0.8-2-2.7v-1.9c0-1.8,0.7-2.7,2-2.7c1.4,0,2,0.8,2,2.7V84.6z"/>
	<path class="st0" d="M58.8,78.5h-1.2c-0.2,0-0.3,0.1-0.3,0.3v7.3c0,0.1,0,0.1-0.1,0.1c0,0-0.1,0-0.1-0.1L54,78.9
		c-0.2-0.4-0.3-0.4-0.6-0.4h-1.5c-0.3,0-0.6,0.3-0.6,0.6v9.5c0,0.2,0.1,0.3,0.3,0.3h1.2c0.2,0,0.3-0.1,0.3-0.3v-7
		c0-0.1,0-0.1,0.1-0.1s0.1,0,0.1,0.1l3.1,6.8c0.2,0.5,0.5,0.5,0.9,0.5h1.4c0.3,0,0.6-0.3,0.6-0.6v-9.5C59.1,78.6,59,78.5,58.8,78.5z
		"/>
	<path class="st0" d="M67.8,79.8c-0.3-1.3-1.3-1.4-1.9-1.4c-0.6,0-1.6,0.1-1.9,1.4l-2.3,8.7c0,0,0,0.1,0,0.1c0,0.1,0.1,0.2,0.3,0.2
		h1.5c0.1,0,0.2-0.1,0.3-0.2l0.6-2.6h3.2l0.6,2.6c0,0.1,0.1,0.2,0.3,0.2h1.5c0.1,0,0.3-0.1,0.3-0.2c0,0,0,0,0-0.1L67.8,79.8z
		 M64.6,84.4l1-4.1c0-0.2,0.1-0.2,0.2-0.2C66,80,66,80,66,80.2l1,4.1H64.6z"/>
	<path class="st0" d="M77.9,87.3h-2.6c-0.8,0-1.1-0.3-1.1-1.2v-7.3c0-0.2-0.1-0.3-0.3-0.3h-1.4c-0.2,0-0.3,0.1-0.3,0.3v7.3
		c0,2.4,1.4,2.9,3.2,2.9c0.7,0,2-0.1,2.4-0.2c0.2,0,0.3-0.1,0.3-0.3v-0.9C78.2,87.4,78,87.3,77.9,87.3z"/>
	<path class="st0" d="M82.3,78.5h-1.4c-0.2,0-0.3,0.1-0.3,0.3v9.8c0,0.2,0.1,0.3,0.3,0.3h1.4c0.2,0,0.3-0.1,0.3-0.3v-9.8
		C82.6,78.6,82.4,78.5,82.3,78.5z"/>
	<path class="st0" d="M93.2,78.5H92c-0.2,0-0.3,0.1-0.3,0.3v7.3c0,0.1,0,0.1-0.1,0.1c0,0-0.1,0-0.1-0.1l-3.3-7.2
		c-0.2-0.4-0.3-0.4-0.6-0.4h-1.5c-0.3,0-0.6,0.3-0.6,0.6v9.5c0,0.2,0.1,0.3,0.3,0.3h1.2c0.2,0,0.3-0.1,0.3-0.3v-7
		c0-0.1,0-0.1,0.1-0.1s0.1,0,0.1,0.1l3.1,6.8c0.2,0.5,0.5,0.5,0.9,0.5h1.4c0.3,0,0.6-0.3,0.6-0.6v-9.5
		C93.4,78.6,93.3,78.5,93.2,78.5z"/>
	<path class="st0" d="M102.3,78.6c-0.4-0.1-1-0.2-2.6-0.2c-1.8,0-3.2,0.5-3.2,2.9v4.9c0,2.4,1.4,2.9,3.2,2.9c1.7,0,2.2-0.1,2.6-0.2
		c0.2,0,0.3-0.1,0.3-0.3v-0.9c0-0.2-0.1-0.3-0.3-0.3h-2.8c-0.8,0-1.1-0.3-1.1-1.2v-1.8h3.8c0.2,0,0.3-0.1,0.3-0.3v-1
		c0-0.2-0.1-0.3-0.3-0.3h-3.8v-1.5c0-0.9,0.3-1.2,1.1-1.2h2.8c0.2,0,0.3-0.1,0.3-0.3v-0.9C102.6,78.6,102.5,78.6,102.3,78.6z"/>
	<path class="st0" d="M100.1,77.6c0.2,0,0.3-0.1,0.3-0.3V76c0-0.2-0.1-0.3-0.3-0.3h-1.3c-0.2,0-0.3,0.1-0.3,0.3v1.3
		c0,0.2,0.1,0.3,0.3,0.3H100.1z"/>
	<path class="st0" d="M118.5,78.5h-1.1c-0.2,0-0.4,0.1-0.5,0.3l-2.1,4.3c-0.1,0.1-0.1,0.2-0.2,0.2c-0.1,0-0.1-0.1-0.2-0.2l-2.1-4.3
		c-0.1-0.2-0.3-0.3-0.5-0.3h-1.1c-0.3,0-0.6,0.3-0.6,0.6v9.6c0,0.1,0.1,0.2,0.2,0.2h1.4c0.1,0,0.2-0.1,0.2-0.3v-6.5
		c0-0.1,0-0.1,0-0.1c0,0,0,0,0.1,0.1l1.4,2.7c0.1,0.2,0.3,0.2,0.4,0.2h1.4c0.2,0,0.4-0.1,0.4-0.2l1.3-2.7c0,0,0.1-0.1,0.1-0.1
		c0,0,0,0,0,0.1v6.5c0,0.1,0.1,0.3,0.2,0.3h1.4c0.1,0,0.2-0.1,0.2-0.2V79C119,78.7,118.8,78.5,118.5,78.5z"/>
	<path class="st0" d="M125.8,78.4c-2.3,0-4,1.3-4,4.4v1.9c0,3.1,1.7,4.4,4,4.4c2.3,0,4-1.3,4-4.4v-1.9
		C129.8,79.6,128.1,78.4,125.8,78.4z M127.8,84.6c0,1.8-0.7,2.7-2,2.7c-1.4,0-2-0.8-2-2.7v-1.9c0-1.8,0.7-2.7,2-2.7
		c1.4,0,2,0.8,2,2.7V84.6z"/>
	<path class="st0" d="M140.1,78.6c0-0.1-0.1-0.2-0.3-0.2h-1.6c-0.2,0-0.3,0-0.3,0.1l-3.4,4.6v-4.4c0-0.2-0.1-0.3-0.3-0.3h-1.4
		c-0.2,0-0.3,0.1-0.3,0.3v9.8c0,0.2,0.1,0.3,0.3,0.3h1.4c0.2,0,0.3-0.1,0.3-0.3v-4.6l3.2,4.8c0.1,0.1,0.2,0.2,0.3,0.2h1.9
		c0.1,0,0.2,0,0.2-0.1c0,0,0-0.1-0.1-0.2l-3.6-5l3.6-4.6C140.1,78.8,140.1,78.7,140.1,78.6z"/>
	<path class="st0" d="M145.9,77.6c0.2,0,0.3-0.1,0.3-0.3V76c0-0.2-0.1-0.3-0.3-0.3h-1.3c-0.2,0-0.3,0.1-0.3,0.3v1.3
		c0,0.2,0.1,0.3,0.3,0.3H145.9z"/>
	<path class="st0" d="M148.2,78.6c-0.4-0.1-1-0.2-2.6-0.2c-1.8,0-3.2,0.5-3.2,2.9v4.9c0,2.4,1.4,2.9,3.2,2.9c1.7,0,2.2-0.1,2.6-0.2
		c0.2,0,0.3-0.1,0.3-0.3v-0.9c0-0.2-0.1-0.3-0.3-0.3h-2.8c-0.8,0-1.1-0.3-1.1-1.2v-1.8h3.8c0.2,0,0.3-0.1,0.3-0.3v-1
		c0-0.2-0.1-0.3-0.3-0.3h-3.8v-1.5c0-0.9,0.3-1.2,1.1-1.2h2.8c0.2,0,0.3-0.1,0.3-0.3v-0.9C148.4,78.6,148.4,78.6,148.2,78.6z"/>
	<path class="st0" d="M152.8,78.5h-1.4c-0.2,0-0.3,0.1-0.3,0.3v10.4c0,0.4-0.1,0.5-0.3,0.5h-0.9c-0.2,0-0.3,0.1-0.3,0.3v1
		c0,0.1,0.1,0.2,0.1,0.2c0.1,0,0.7,0.1,1.1,0.1c1.5,0,2.2-0.6,2.2-2V78.7C153.1,78.6,153,78.5,152.8,78.5z"/>
	<path class="st0" d="M157.8,78.5h-1.4c-0.2,0-0.3,0.1-0.3,0.3v9.8c0,0.2,0.1,0.3,0.3,0.3h1.4c0.2,0,0.3-0.1,0.3-0.3v-9.8
		C158.1,78.6,158,78.5,157.8,78.5z"/>
	<path class="st0" d="M169.5,78.5h-1.1c-0.2,0-0.4,0.1-0.5,0.3l-2.1,4.3c-0.1,0.1-0.1,0.2-0.2,0.2c-0.1,0-0.1-0.1-0.2-0.2l-2.1-4.3
		c-0.1-0.2-0.3-0.3-0.5-0.3h-1.1c-0.3,0-0.6,0.3-0.6,0.6v9.6c0,0.1,0.1,0.2,0.2,0.2h1.4c0.1,0,0.2-0.1,0.2-0.3v-6.5
		c0-0.1,0-0.1,0-0.1c0,0,0,0,0.1,0.1l1.4,2.7c0.1,0.2,0.3,0.2,0.4,0.2h1.4c0.2,0,0.4-0.1,0.4-0.2l1.3-2.7c0,0,0.1-0.1,0.1-0.1
		c0,0,0,0,0,0.1v6.5c0,0.1,0.1,0.3,0.2,0.3h1.4c0.1,0,0.2-0.1,0.2-0.2V79C170.1,78.7,169.8,78.5,169.5,78.5z"/>
	<path class="st0" d="M176.9,78.4c-2.3,0-4,1.3-4,4.4v1.9c0,3.1,1.7,4.4,4,4.4c2.3,0,4-1.3,4-4.4v-1.9
		C180.8,79.6,179.2,78.4,176.9,78.4z M178.9,84.6c0,1.8-0.7,2.7-2,2.7c-1.4,0-2-0.8-2-2.7v-1.9c0-1.8,0.7-2.7,2-2.7
		c1.4,0,2,0.8,2,2.7V84.6z"/>
	<path class="st0" d="M193.6,79.8c-0.3-1.3-1.3-1.4-1.9-1.4c-0.6,0-1.6,0.1-1.9,1.4l-2.3,8.7c0,0,0,0.1,0,0.1c0,0.1,0.1,0.2,0.3,0.2
		h1.5c0.1,0,0.2-0.1,0.3-0.2l0.6-2.6h3.2l0.6,2.6c0,0.1,0.1,0.2,0.3,0.2h1.5c0.1,0,0.3-0.1,0.3-0.2c0,0,0,0,0-0.1L193.6,79.8z
		 M190.5,84.4l1-4.1c0-0.2,0.1-0.2,0.2-0.2c0.1,0,0.2,0.1,0.2,0.2l1,4.1H190.5z"/>
	<path class="st0" d="M204.6,78.6c-0.5-0.1-1.7-0.3-3-0.3c-1.7,0-3.8,1-3.8,4.3v2c0,3.3,2.2,4.3,3.7,4.3c1.4,0,2.3-0.1,3-0.2
		c0.2,0,0.3-0.2,0.3-0.3v-4.7c0-0.2-0.1-0.3-0.3-0.3h-1.4c-0.2,0-0.3,0.1-0.3,0.3v3.6c-0.4,0-0.9,0-1.4,0c-0.8,0-1.8-0.6-1.8-2.6v-2
		c0-2,0.9-2.6,1.8-2.6c1.3,0,2.3,0.1,2.9,0.1c0,0,0,0,0,0c0.2,0,0.3-0.1,0.3-0.3v-0.9C204.9,78.7,204.8,78.6,204.6,78.6z"/>
	<path class="st0" d="M213.7,78.6c-0.4-0.1-1-0.2-2.7-0.2c-1.8,0-3.2,0.5-3.2,2.9v4.9c0,2.4,1.4,2.9,3.2,2.9c1.7,0,2.2-0.1,2.7-0.2
		c0.2,0,0.3-0.1,0.3-0.3v-0.9c0-0.2-0.1-0.3-0.3-0.3h-2.8c-0.8,0-1.1-0.3-1.1-1.2v-1.8h3.8c0.2,0,0.3-0.1,0.3-0.3v-1
		c0-0.2-0.1-0.3-0.3-0.3h-3.8v-1.5c0-0.9,0.3-1.2,1.1-1.2h2.8c0.2,0,0.3-0.1,0.3-0.3v-0.9C213.9,78.6,213.9,78.6,213.7,78.6z"/>
	<path class="st0" d="M224.3,78.5h-1.2c-0.2,0-0.3,0.1-0.3,0.3v7.3c0,0.1,0,0.1-0.1,0.1c0,0-0.1,0-0.1-0.1l-3.3-7.2
		c-0.2-0.4-0.3-0.4-0.6-0.4h-1.5c-0.3,0-0.6,0.3-0.6,0.6v9.5c0,0.2,0.1,0.3,0.3,0.3h1.2c0.2,0,0.3-0.1,0.3-0.3v-7
		c0-0.1,0-0.1,0.1-0.1c0,0,0.1,0,0.1,0.1l3.1,6.8c0.2,0.5,0.5,0.5,0.9,0.5h1.4c0.3,0,0.6-0.3,0.6-0.6v-9.5
		C224.5,78.6,224.4,78.5,224.3,78.5z"/>
	<path class="st0" d="M234.1,78.5h-6.8c-0.2,0-0.3,0.1-0.3,0.3v1.1c0,0.2,0.1,0.3,0.3,0.3h2.4v8.5c0,0.2,0.1,0.3,0.3,0.3h1.4
		c0.2,0,0.3-0.1,0.3-0.3v-8.5h2.4c0.2,0,0.3-0.1,0.3-0.3v-1.1C234.4,78.6,234.3,78.5,234.1,78.5z"/>
	<path class="st0" d="M242.9,77.3c0.2,0,0.3-0.1,0.3-0.2v-0.8c0-0.2-0.1-0.3-0.3-0.3h-4.3c-0.2,0-0.3,0.1-0.3,0.3V77
		c0,0.2,0.1,0.2,0.3,0.2H242.9z"/>
	<path class="st0" d="M244.2,78.5h-1.4c-0.2,0-0.3,0.1-0.3,0.3V85c0,1.6-0.4,2.3-1.9,2.3c-1.5,0-1.9-0.8-1.9-2.3v-6.3
		c0-0.2-0.1-0.3-0.3-0.3h-1.4c-0.2,0-0.3,0.1-0.3,0.3V85c0,3,1.6,3.9,3.8,3.9s3.8-1,3.8-3.9v-6.3C244.5,78.6,244.4,78.5,244.2,78.5z
		"/>
	<path class="st0" d="M252.8,84.5c1.1-0.4,1.9-1.4,1.9-2.8v-0.1c0-2.4-1.9-3.2-4-3.2c-1,0-2,0.1-2.7,0.2c-0.3,0-0.4,0.1-0.4,0.4v9.6
		c0,0.2,0.1,0.3,0.3,0.3h1.4c0.2,0,0.3-0.1,0.3-0.3v-3.8c0.3,0,0.9,0.1,1.2,0.1h0.2l2,3.7c0.1,0.1,0.1,0.3,0.3,0.3h1.7
		c0.1,0,0.2-0.1,0.2-0.2c0,0,0-0.1,0-0.1L252.8,84.5z M252.8,81.6c0,1.2-0.7,1.6-2.1,1.6c-0.2,0-1,0-1.2,0v-3.1
		c0.3,0,0.9-0.1,1.2-0.1c1.4,0,2.1,0.4,2.1,1.5V81.6z"/>
	<path class="st0" d="M265.7,88.5l-2.3-8.7c-0.3-1.3-1.3-1.4-1.9-1.4c-0.6,0-1.6,0.1-1.9,1.4l-2.3,8.7c0,0,0,0.1,0,0.1
		c0,0.1,0.1,0.2,0.3,0.2h1.5c0.1,0,0.2-0.1,0.3-0.2l0.6-2.6h3.2l0.6,2.6c0,0.1,0.1,0.2,0.3,0.2h1.5
		C265.6,88.8,265.7,88.7,265.7,88.5C265.7,88.6,265.7,88.6,265.7,88.5z M260.3,84.4l1-4.1c0-0.2,0.1-0.2,0.2-0.2
		c0.1,0,0.2,0.1,0.2,0.2l1,4.1H260.3z"/>
	<path class="st0" d="M126.1,5.6c-1.2,0-2.2,0.4-3,1.2c-0.8,0.8-1.2,1.8-1.2,3V53L86.2,7.1c-0.9-1-2-1.6-3.3-1.6
		c-0.6,0-1.2,0.1-1.7,0.3c-0.5,0.2-1,0.5-1.3,0.9c-0.4,0.4-0.7,0.8-0.9,1.4c-0.2,0.5-0.3,1.1-0.3,1.7v55.5c0,1.2,0.4,2.2,1.2,3
		c0.8,0.8,1.8,1.2,3,1.2c1.2,0,2.2-0.4,3-1.2c0.8-0.8,1.2-1.8,1.2-3V22.2l35.7,45.8c0.9,1,2,1.5,3.2,1.5c0.6,0,1.1-0.1,1.7-0.3
		c0.5-0.2,1-0.5,1.4-0.9c0.4-0.4,0.7-0.8,0.9-1.3c0.2-0.5,0.3-1.1,0.3-1.7V9.8c0-1.2-0.4-2.2-1.2-3C128.3,6,127.3,5.6,126.1,5.6z"/>
	<path class="st0" d="M202.9,68.3c0.8-0.8,1.2-1.8,1.2-3V9.8c0-0.6-0.1-1.1-0.3-1.7c-0.2-0.5-0.5-1-0.9-1.4
		c-0.4-0.4-0.8-0.7-1.4-0.9c-0.5-0.2-1.1-0.3-1.7-0.3c-1.5,0-2.8,0.8-3.8,2.3l-24,47.9l-24-47.9c-0.9-1.5-2.1-2.3-3.8-2.3
		c-0.6,0-1.2,0.1-1.7,0.3c-0.5,0.2-1,0.5-1.3,0.9c-0.4,0.4-0.7,0.8-0.9,1.4c-0.2,0.5-0.3,1.1-0.3,1.7v55.5c0,1.2,0.4,2.2,1.2,3
		c0.8,0.8,1.8,1.2,3,1.2c1.2,0,2.2-0.4,3-1.2c0.8-0.8,1.2-1.8,1.2-3V27.8L168.2,67c0.8,1.7,2.1,2.6,3.9,2.6c1.6,0,2.9-0.7,3.7-2.1
		l19.8-39.6v37.5c0,1.2,0.4,2.2,1.2,3c0.8,0.8,1.8,1.2,3,1.2C201,69.5,202,69.1,202.9,68.3z"/>
	<path class="st0" d="M261.7,68.3c0.8-0.8,1.2-1.8,1.2-3c0-0.6-0.1-1.2-0.3-1.7L241.2,8.5c-0.8-1.9-2.1-2.9-4-2.9
		c-1.8,0-3.2,1-4,2.9l-21.3,54.9c-0.3,0.6-0.4,1.3-0.4,1.9c0,1.2,0.4,2.2,1.2,3c0.8,0.8,1.8,1.2,3,1.2c1.2,0,2.2-0.4,3-1.2
		c0.4-0.4,0.7-0.9,1-1.4l7.4-19h20.5l7.4,19c0.2,0.5,0.5,0.9,1,1.4c0.8,0.8,1.8,1.2,3,1.2C259.9,69.5,260.9,69.1,261.7,68.3z
		 M230.2,39.5l7-17.9l7,17.9H230.2z"/>
</g>
</svg>
