<?xml version="1.0" encoding="UTF-8"?><svg id="Layer_1" xmlns="http://www.w3.org/2000/svg" xmlns:xlink="http://www.w3.org/1999/xlink" viewBox="0 0 499.74 92.91"><defs><style>.cls-1{fill:url(#linear-gradient-2);}.cls-2{fill:#fff;}.cls-3{clip-path:url(#clippath-1);}.cls-4{fill:#2fbaa5;}.cls-4,.cls-5{fill-rule:evenodd;}.cls-6{clip-path:url(#clippath);}.cls-7{fill:none;}.cls-5{fill:#008596;}.cls-8{fill:url(#linear-gradient);}</style><clipPath id="clippath"><path class="cls-7" d="m75.69,25.14c1.22,1.52,3.25,2.27,5.26,1.76,2.74-.7,4.39-3.49,3.69-6.22-.2-.78-.57-1.47-1.05-2.04-3.69-4.94-8.31-9.06-13.54-12.15C59.85.44,47.33-1.71,34.94,1.46c-2.73.7-4.38,3.48-3.68,6.21.7,2.73,3.48,4.38,6.21,3.68,9.67-2.47,19.42-.8,27.37,3.91,4.21,2.5,7.92,5.84,10.85,9.87"/></clipPath><linearGradient id="linear-gradient" x1="53.81" y1="-3.36" x2="62.73" y2="31.55" gradientUnits="userSpaceOnUse"><stop offset="0" stop-color="#2fbaa5"/><stop offset="1" stop-color="#008596"/></linearGradient><clipPath id="clippath-1"><path class="cls-7" d="m37.89,81.6c-1.91-.39-3.95.34-5.17,2.02-1.65,2.29-1.14,5.49,1.15,7.14.65.47,1.38.76,2.12.89,6,1.43,12.18,1.64,18.18.67,11.71-1.89,22.7-8.25,30.19-18.62,1.65-2.29,1.14-5.48-1.15-7.13-2.29-1.65-5.48-1.14-7.13,1.15-5.84,8.09-14.41,13.05-23.53,14.52-4.83.78-9.83.59-14.65-.64"/></clipPath><linearGradient id="linear-gradient-2" x1="72.95" y1="89.5" x2="43.72" y2="68.41" gradientUnits="userSpaceOnUse"><stop offset="0" stop-color="#008596"/><stop offset="1" stop-color="#2fbaa5"/></linearGradient></defs><g class="cls-6"><rect class="cls-8" x="30.56" y="-1.71" width="54.78" height="29.13"/></g><path class="cls-4" d="m17.53,67.96c1.1,1.61,1.22,3.77.15,5.54-1.47,2.41-4.61,3.18-7.03,1.71-.69-.42-1.24-.97-1.65-1.6-3.65-4.97-6.24-10.59-7.68-16.49C-1.48,45.61.1,33.01,6.75,22.08c1.47-2.41,4.61-3.18,7.02-1.71,2.41,1.47,3.18,4.61,1.71,7.02-5.18,8.53-6.42,18.35-4.23,27.33,1.16,4.76,3.28,9.28,6.28,13.25M26.1,9.89c1.67,2.28,1.17,5.47-1.11,7.14-2.28,1.67-5.47,1.17-7.14-1.11-1.67-2.28-1.17-5.47,1.11-7.14,2.28-1.67,5.47-1.17,7.14,1.11Zm2.98,69.82c.7,2.73-.95,5.51-3.68,6.21-2.73.7-5.52-.95-6.21-3.68-.7-2.73.95-5.51,3.68-6.21,2.73-.7,5.51.95,6.21,3.68Z"/><g class="cls-3"><rect class="cls-1" x="31.07" y="64.91" width="54.94" height="28.37"/></g><path class="cls-5" d="m91.57,43.31c1.67,2.28,1.17,5.47-1.11,7.14-2.28,1.67-5.47,1.17-7.14-1.11-1.66-2.28-1.17-5.47,1.11-7.14,2.28-1.66,5.47-1.17,7.14,1.11"/><text x="115" y="68" fill="#fff" font-family="Arial, Helvetica, sans-serif" font-size="62" letter-spacing="2"><tspan font-weight="700">PROTEA</tspan><tspan font-weight="400">FLY</tspan></text></svg>