<svg width="50" height="40" viewBox="0 0 50 40" fill="none" xmlns="http://www.w3.org/2000/svg">
<path d="M49.5 21.5L48.75 20.5L48.7502 14.5109C48.7502 13.7609 48.25 13.25 47.5002 13.25C47.2502 13.25 47.0002 13.25 47.0002 13.5C46.25 14 45.5 14.5 45 15.25L39.75 8.25C38.25 6.25 36 5 33.75 5H12.5C9.75 5 7.5 7.25 7.5 10L7.50002 33.75C7.50002 34.5 8.00009 35 8.75002 35H13.6797C14.4297 35 14.9297 34.5 14.9297 33.75L15 27.5C15 24 17.75 21.25 21.25 21.25C24.75 21.25 27.5 24 27.5 27.5L27.5001 33.75C27.5001 34.5 28.0001 35 28.6798 35H33.6798C34.4298 35 34.9298 34.5 34.9298 33.75V20L37.3595 22.5L37.3595 25.7461C37.3595 26.7461 37.6094 27.75 38.1094 28.5L41.3594 33.25C42.6094 35 44.8594 35.5 46.3594 34.25C47.1094 33.75 47.8594 32.75 47.8594 32L50 23.5C50 22.75 50 22.25 49.5 21.5ZM29.5 13L27.75 14.75C26 16.5 23.7578 17.5 21.2578 17.5C18.7578 17.5 16.5 16.5 14.75 14.75L13 13C11.75 11.75 12.7578 10 14.7578 10H27.7422C29.7422 10 30.75 11.75 29.5 13ZM45 27.5C44.25 27.5 43.75 27 43.75 26.25C43.75 25.5 44.25 25 45 25C45.75 25 46.25 25.5 46.25 26.25C46.25 27 45.75 27.5 45 27.5Z" fill="#AA4F49"/>
<path opacity="0.4" d="M7.5 9C6.5 9.5 5.75 10.5 5.5 12V20C5.5 22.75 3.25 25 0.5 25H0V22.5C0 21 0.75 19.5 2 18.75V12C2 8 5 5 8.75 5H12.5C10.25 5 8 6.75 7.5 9ZM26 23.5C25 22 23 21.25 21.25 21.25C17.5 21.25 15.25 24.5 15 27.25V27.5C15.75 28.25 16.5 28.75 17.5 29.25V31.25C17.5 32 18 32.5 18.75 32.5C19.5 32.5 20 32 20 31.25V30C20.75 30 21 30.25 22.5 30V31.25C22.5 32 23 32.5 23.75 32.5C24.5 32.5 25 32 25 31.25V29.25C26 28.75 26.75 28.25 27.5 27.5C27.5 26 27 24.75 26 23.5Z" fill="#AA4F49"/>
</svg>
