<svg width="55" height="55" viewBox="0 0 55 55" fill="none" xmlns="http://www.w3.org/2000/svg">
<g clip-path="url(#clip0_42_77)">
<path d="M31.6035 1.71875L34.0312 4.14971C37.6943 7.80957 38.8545 13.0195 37.5225 17.6709C42.1738 16.3389 47.3838 17.499 51.0469 21.1621L53.4746 23.5898L51.0469 26.0283C47.0186 30.0566 40.4873 30.0566 36.459 26.0283L29.165 18.7344C25.1367 14.7061 25.1367 8.17695 29.165 4.14971L31.6035 1.71875ZM26.5869 28.6064C31.2383 27.2744 36.4482 28.4453 40.1113 32.0977L42.4424 34.5361L40.1113 36.9639C36.083 40.9922 29.5518 40.9922 25.5234 36.9639L18.2295 29.6699C14.2012 25.6416 14.2012 19.1104 18.2295 15.0928L20.6572 12.6543L22.999 15.0928C26.748 18.7451 27.9189 23.9551 26.5869 28.6064ZM9.72275 23.5898L12.1494 26.0283C15.8125 29.6914 16.9834 34.9014 15.6514 39.542C20.292 38.21 25.5127 39.3809 29.165 43.0439L31.6035 45.4717L29.165 47.8994C25.1367 51.9277 18.6162 51.9277 14.5879 47.8994L12.1494 45.4717L7.2918 40.6055C3.26455 36.5879 3.26455 30.0566 7.2918 26.0283L9.72275 23.5898Z" fill="url(#paint0_linear_42_77)"/>
<path opacity="0.4" d="M54.1514 0.755068C55.2471 1.76172 55.2471 3.39453 54.1514 4.40107L44.6982 13.7607C43.7852 14.8564 42.1523 14.8564 41.1426 13.7607C40.1436 12.8477 40.1436 11.2148 41.1426 10.2083L50.5957 0.755068C51.6055 -0.251689 53.2383 -0.251689 54.1514 0.755068ZM31.7217 28.0479C30.0029 27.9727 28.2627 28.123 26.5869 28.6064C27.1025 26.8232 27.2422 24.9541 27.0166 23.1279L30.2822 19.8516L35.1484 24.7178L31.7217 28.0479ZM44.2256 17.4453L50.5957 11.0645C51.6055 10.0611 53.2383 10.0611 54.1514 11.0645C55.2471 12.0742 55.2471 13.707 54.1514 14.6201L49.2852 19.6797C47.7383 18.5732 46.0088 17.7353 44.2256 17.4453ZM35.3525 5.68584L40.2832 0.755068C41.293 -0.251689 42.9258 -0.251689 43.8389 0.755068C44.9346 1.76172 44.9346 3.39453 43.8389 4.40107L37.6729 10.6562C37.2539 8.89453 36.4805 7.20049 35.3525 5.68584ZM20.7861 39.0801C19.0674 38.9082 17.3164 39.0693 15.6514 39.542C16.1562 37.7588 16.3066 35.8896 16.0811 34.0635L19.3467 30.7871L24.2129 35.6533L20.7861 39.0801ZM5.86846 53.9902C4.52568 55.333 2.34932 55.333 1.00676 53.9902C-0.335586 52.6475 -0.335586 50.4775 1.00676 49.1348L8.41006 41.7334L13.2666 46.5889L5.86846 53.9902Z" fill="#2B8496"/>
</g>
<defs>
<linearGradient id="paint0_linear_42_77" x1="46.2648" y1="43.7173" x2="11.4759" y2="8.92744" gradientUnits="userSpaceOnUse">
<stop stop-color="#008699"/>
<stop offset="1" stop-color="#34B4A3"/>
</linearGradient>
<clipPath id="clip0_42_77">
<rect width="55" height="55" fill="white"/>
</clipPath>
</defs>
</svg>
