<svg width="20" height="16" viewBox="0 0 20 16" fill="none" xmlns="http://www.w3.org/2000/svg">
<path opacity="0.4" d="M0 2.51562V13.1406C0 14.5195 1.12109 15.6406 2.5 15.6406H17.5C18.8789 15.6406 20 14.5195 20 13.1406V2.51562C20 3.10547 19.7227 3.66016 19.25 4.01562L10.75 10.3906C10.3047 10.7227 9.69531 10.7227 9.25 10.3906L0.75 4.01562C0.277344 3.66016 0 3.10547 0 2.51562Z" fill="#2B8496"/>
<path d="M1.875 0.640625C0.839844 0.640625 0 1.48047 0 2.51562C0 3.10547 0.277344 3.66016 0.75 4.01562L9.25 10.3906C9.69531 10.7227 10.3047 10.7227 10.75 10.3906L19.25 4.01562C19.7227 3.66016 20 3.10547 20 2.51562C20 1.48047 19.1602 0.640625 18.125 0.640625H1.875Z" fill="url(#paint0_linear_259_1456)"/>
<defs>
<linearGradient id="paint0_linear_259_1456" x1="17.0694" y1="9.17575" x2="11.4137" y2="-2.13661" gradientUnits="userSpaceOnUse">
<stop stop-color="#008699"/>
<stop offset="1" stop-color="#34B4A3"/>
</linearGradient>
</defs>
</svg>
