<svg width="178" height="140" viewBox="0 0 178 140" fill="none" xmlns="http://www.w3.org/2000/svg">
<g clip-path="url(#clip0_47_196)">
<path d="M36.2397 63.9296H33.375V129.062C33.375 130.812 32.6797 132.48 31.1778 133.465C30.1766 134.941 28.48 135.625 26.7 135.625C24.9283 135.625 23.2318 134.941 21.9802 133.465C20.7287 132.48 20.025 130.812 20.025 129.062V63.9296H17.2048C12.1986 62.9726 7.68738 60.3476 4.19969 56.4921C2.50507 54.0859 1.14226 51.2968 0.466693 48.3164C-0.209178 45.3359 -0.180087 42.246 0.551799 39.2656L7.75134 7.31441C7.96272 6.42027 8.4995 5.63003 9.26156 5.09683C10.0236 4.56636 10.9581 4.32847 11.8898 4.42691C12.8188 4.52808 13.6782 4.96011 14.304 5.6437C14.9325 6.32456 15.283 7.2105 15.2913 8.12925V41.8906H19.4382L23.5127 7.16675C23.6073 6.39839 23.9827 5.69019 24.5696 5.17613C25.1592 4.66206 25.9185 4.37769 26.7056 4.37769C27.4899 4.37769 28.2575 4.66206 28.8416 5.17613C29.4256 5.69019 29.815 6.39839 29.8984 7.16675L33.9591 41.8906H38.1031V8.12925C38.1309 7.2105 38.4647 6.32456 39.1044 5.6437C39.7163 4.96011 40.5784 4.52808 41.5241 4.42691C42.4419 4.32847 43.1372 4.56636 44.1384 5.09683C44.8894 5.63003 45.4456 6.42027 45.6403 7.31441L52.8438 39.2656C53.5947 42.2187 53.6225 45.3085 52.955 48.289C52.2875 51.2695 50.9247 54.0585 49.0056 56.4648C45.7516 60.3203 41.2459 62.9726 36.2397 63.9296ZM173.633 4.9437C174.496 5.30738 175.302 5.83785 175.942 6.50503C176.609 7.16949 177.138 7.95699 177.499 8.82105C177.833 9.68784 178 10.6093 178 11.5418V129.062C178 130.812 177.305 132.48 175.803 133.465C174.802 134.941 173.105 135.625 171.325 135.625C169.545 135.625 167.848 134.941 166.597 133.465C165.345 132.48 164.65 130.812 164.65 129.062V87.4999H151.3C148.936 87.4999 146.683 86.5703 145.014 84.9296C143.346 83.289 142.4 81.0742 142.4 78.7499L142.511 43.2578C142.456 35.082 144.848 27.0703 149.437 20.2398C153.998 13.4121 160.534 8.06909 168.21 4.89175C169.044 4.54995 169.962 4.12886 170.88 4.37496C171.826 4.38316 172.771 4.5773 173.633 4.94097V4.9437Z" fill="#8B8EA2"/>
<path opacity="0.4" d="M61.4656 37.3242L57.5441 19.9226C69.3922 11.6867 83.7991 7.79022 98.2894 8.90858C112.752 10.0269 126.352 16.0918 136.754 26.0476C134.724 31.5547 133.667 37.3789 133.639 43.2305V51.4883C130.608 45.0898 126.074 39.5117 120.373 35.2187C114.671 30.9531 107.996 28.082 100.932 26.8816C93.8672 25.684 86.6081 26.1926 79.7941 28.3555C72.98 30.5156 66.7778 34.289 61.7716 39.3203C61.6603 38.664 61.6881 38.0078 61.4656 37.3242ZM118.62 45.2539C125.295 51.8164 129.05 60.7305 129.05 69.7539C129.05 76.918 126.964 83.6992 123.043 89.4414C119.149 95.2109 113.586 99.6953 106.828 102.348C100.57 104.973 93.4222 105.684 86.4969 104.316C79.5994 102.977 73.2581 99.6406 68.2797 94.7461C63.3013 89.8515 59.9081 83.6172 58.5453 76.5898C57.1547 70.0273 57.8778 63 60.5478 56.6015C63.2456 50.2031 67.8069 44.7344 73.6753 40.9062C79.516 37.0508 86.4135 34.7539 93.45 34.7539C102.878 34.7539 111.945 38.6914 118.62 45.2539ZM149.743 96.1406C145.098 105.875 137.922 114.215 128.939 120.34C119.955 126.465 109.47 130.184 98.5953 131.059C87.6928 131.934 76.7347 129.992 66.8613 125.398C56.9878 120.805 48.505 113.723 42.275 104.891V71.3398C44.6947 70.4922 47.0031 69.3437 49.1725 67.9219C49.1169 68.3867 48.95 69.289 48.95 69.7539C48.6997 80.2265 52.5656 90.125 59.2128 98C65.8878 105.848 75.1216 111.152 85.3566 113.012C95.5916 114.871 106.133 113.121 115.199 108.09C124.266 102.84 131.247 95.1015 134.918 85.5312C135.808 87.6094 136.865 89.4961 138.729 91.1094C141.677 94.0078 145.598 95.7851 149.743 96.1406Z" fill="#8B8EA2"/>
</g>
<defs>
<clipPath id="clip0_47_196">
<rect width="178" height="140" fill="white"/>
</clipPath>
</defs>
</svg>
