<svg width="59" height="58" viewBox="0 0 59 58" fill="none" xmlns="http://www.w3.org/2000/svg">
<g clip-path="url(#clip0_63_667)">
<path opacity="0.4" d="M44.9275 22.5192C43.3949 20.8681 41.9331 19.4323 40.66 18.2492C39.9062 17.5479 39.2177 16.9336 38.6207 16.4186C37.1645 15.1582 36.2552 14.4707 36.2552 14.4707C36.2552 14.4707 36.2343 14.5176 36.1983 14.6074C35.9081 15.3114 34.5671 18.6689 33.5217 23.0728C33.276 24.104 33.0483 25.1919 32.854 26.317C32.7068 27.1674 32.5569 28.2373 32.4653 29.4646C32.1418 33.787 32.5347 40.0712 36.2552 45.6305C36.7397 46.3539 37.2658 47.0124 37.8711 47.6599C39.5106 49.4146 41.722 51.0836 45.2079 53.7121C46.821 54.9298 48.3772 56.0231 49.8432 56.9992C53.7247 59.5835 58.9473 56.8625 58.9986 52.2184C59.118 41.4489 52.7835 31.5381 46.7697 24.5761C46.1505 23.8569 45.5327 23.1708 44.9261 22.5178L44.9275 22.5192Z" fill="#2B8496"/>
<path d="M39.9242 7.07792L41.4276 13.5581L40.0311 14.98C40.6322 15.5019 41.3193 16.1148 42.069 16.8134L43.9167 14.9317C44.243 14.599 44.3776 14.1241 44.2721 13.6713L42.8075 7.36368L49.8514 2.48629C50.4734 2.05556 50.6261 1.20516 50.1929 0.586686C49.7598 -0.0317897 48.9047 -0.183647 48.2827 0.245696L40.4781 5.65183C40.0186 5.97073 39.7992 6.53537 39.9256 7.0793L39.9242 7.07792Z" fill="url(#paint0_linear_63_667)"/>
<path d="M48.0232 18.9131L46.2449 20.9839C46.8515 21.6341 47.4707 22.3189 48.0926 23.0368L49.7002 21.1648H56.5942C57.3521 21.1648 57.9671 20.5532 57.9671 19.7994C57.9671 19.0457 57.3521 18.4341 56.5942 18.4341H49.0672C48.666 18.4341 48.2842 18.6094 48.0232 18.9131Z" fill="url(#paint1_linear_63_667)"/>
<path d="M22.1951 49.4505C24.0762 52.3551 26.6694 54.1498 29.5319 54.1498C32.3945 54.1498 34.9641 52.3717 36.8424 49.4905C35.9803 48.6221 35.2515 47.7428 34.5796 46.7391C30.7466 41.0127 30.1441 34.6222 30.419 29.8981C30.5065 28.3975 30.6814 27.0639 30.8702 25.976C31.1006 24.6493 31.3741 23.3737 31.6657 22.1809C32.3917 19.2156 33.2288 16.7582 33.7855 15.2604C34.5601 15.0008 35.2667 14.6723 35.8845 14.2885C36.5356 13.884 37.0867 13.4188 37.5157 12.9066C38.1751 12.1224 38.5485 11.2306 38.5485 10.2836C38.5485 8.18794 36.723 6.35875 34.0132 5.38548L37.9905 2.76938C38.6235 2.35385 38.7956 1.5062 38.3778 0.878065C37.9599 0.248545 37.1075 0.0773601 36.4759 0.492898L30.2302 4.60272C30.2052 4.61929 30.1816 4.63723 30.158 4.65518C29.9526 4.6469 29.7443 4.64138 29.5347 4.64138C29.3251 4.64138 29.1182 4.64552 28.9114 4.65518C28.8878 4.63723 28.8642 4.61929 28.8392 4.60272L22.5908 0.492898C21.9577 0.0773601 21.1067 0.249926 20.6889 0.878065C20.271 1.5062 20.4445 2.35385 21.0762 2.76938L25.0535 5.38548C22.3437 6.35875 20.5181 8.18794 20.5181 10.2836C20.5181 11.2182 20.8818 12.1004 21.5246 12.8762C21.9577 13.4008 22.5186 13.8757 23.1821 14.2871C23.7805 14.6598 24.4621 14.9787 25.2062 15.2341C25.7629 16.7334 26.6097 19.2101 27.3399 22.2003C27.6301 23.3875 27.9021 24.6562 28.1312 25.9746C28.32 27.0625 28.4949 28.3933 28.5824 29.8912C28.8573 34.6153 28.2561 41.0099 24.4218 46.7377C23.7597 47.7262 23.0433 48.5932 22.1965 49.4491L22.1951 49.4505Z" fill="url(#paint2_linear_63_667)"/>
<path d="M18.4107 5.65049L10.6047 0.244356C9.98274 -0.186368 9.12758 -0.0345099 8.69445 0.585346C8.26133 1.20382 8.41403 2.05422 9.03735 2.48495L16.0799 7.36234L14.6153 13.67C14.5112 14.1228 14.6444 14.5977 14.9707 14.9304L16.8712 16.8673C17.618 16.1715 18.3038 15.5571 18.9063 15.0325L17.4584 13.5568L18.9618 7.07657C19.0882 6.53265 18.8688 5.96801 18.4093 5.64911L18.4107 5.65049Z" fill="url(#paint3_linear_63_667)"/>
<path d="M2.29472 21.1648H9.18731L10.8504 23.1016C11.4723 22.3851 12.0901 21.699 12.6968 21.0474L10.8643 18.9131C10.6033 18.6094 10.2215 18.4341 9.82034 18.4341H2.29472C1.53674 18.4341 0.921753 19.0443 0.921753 19.7994C0.921753 20.5546 1.53535 21.1648 2.29472 21.1648Z" fill="url(#paint4_linear_63_667)"/>
<path opacity="0.4" d="M5.85006 57.9986C6.96482 58.0083 8.11011 57.6977 9.15684 57.0005C10.6242 56.0245 12.179 54.9311 13.7935 53.7135C17.3099 51.0615 19.5311 49.3855 21.1734 47.6143C21.7606 46.982 22.2743 46.3373 22.7463 45.6319C26.4751 40.0615 26.861 33.7649 26.5348 29.4425C26.4418 28.2248 26.2946 27.1632 26.1475 26.3183C25.9545 25.2056 25.7296 24.1302 25.488 23.11C24.4635 18.7793 23.1502 15.455 22.8226 14.6557C22.7726 14.5342 22.7463 14.472 22.7463 14.472C22.7463 14.472 22.7171 14.4941 22.6616 14.5369C22.3992 14.7385 21.5482 15.4067 20.321 16.4724C19.7227 16.9915 19.0355 17.6045 18.2845 18.3058C17.0087 19.493 15.5469 20.9315 14.0171 22.584C13.4118 23.2384 12.7954 23.9259 12.1763 24.6451C6.17769 31.6002 -0.117961 41.4834 0.00142773 52.2197C0.0389101 55.6103 2.83343 57.9765 5.84867 57.9986H5.85006Z" fill="#2B8496"/>
</g>
<defs>
<linearGradient id="paint0_linear_63_667" x1="48.8936" y1="14.3521" x2="38.1902" y2="7.63583" gradientUnits="userSpaceOnUse">
<stop stop-color="#008699"/>
<stop offset="1" stop-color="#34B4A3"/>
</linearGradient>
<linearGradient id="paint1_linear_63_667" x1="56.2494" y1="22.3629" x2="54.0352" y2="16.7235" gradientUnits="userSpaceOnUse">
<stop stop-color="#008699"/>
<stop offset="1" stop-color="#34B4A3"/>
</linearGradient>
<linearGradient id="paint2_linear_63_667" x1="35.9471" y1="46.261" x2="12.9014" y2="38.5006" gradientUnits="userSpaceOnUse">
<stop stop-color="#008699"/>
<stop offset="1" stop-color="#34B4A3"/>
</linearGradient>
<linearGradient id="paint3_linear_63_667" x1="17.4514" y1="14.3977" x2="6.72783" y2="7.69133" gradientUnits="userSpaceOnUse">
<stop stop-color="#008699"/>
<stop offset="1" stop-color="#34B4A3"/>
</linearGradient>
<linearGradient id="paint4_linear_63_667" x1="10.9714" y1="22.4183" x2="8.71022" y2="16.7141" gradientUnits="userSpaceOnUse">
<stop stop-color="#008699"/>
<stop offset="1" stop-color="#34B4A3"/>
</linearGradient>
<clipPath id="clip0_63_667">
<rect width="59" height="58" fill="white"/>
</clipPath>
</defs>
</svg>
