<svg width="18" height="19" viewBox="0 0 18 19" fill="none" xmlns="http://www.w3.org/2000/svg">
<path d="M4.02911 18.6406H0.297321V6.62295H4.02911V18.6406ZM2.16121 4.98362C0.967902 4.98362 0 3.99521 0 2.80188C8.54116e-09 2.22868 0.227698 1.67896 0.633002 1.27364C1.03831 0.868328 1.58802 0.640625 2.16121 0.640625C2.73439 0.640625 3.2841 0.868328 3.68941 1.27364C4.09471 1.67896 4.32241 2.22868 4.32241 2.80188C4.32241 3.99521 3.35411 4.98362 2.16121 4.98362ZM17.996 18.6406H14.2722V12.7905C14.2722 11.3963 14.2441 9.60828 12.332 9.60828C10.3918 9.60828 10.0945 11.123 10.0945 12.69V18.6406H6.3667V6.62295H9.9458V8.26227H9.99804C10.4963 7.31805 11.7133 6.3216 13.5289 6.3216C17.3057 6.3216 18 8.80871 18 12.0391V18.6406H17.996Z" fill="url(#paint0_linear_259_1465)"/>
<defs>
<linearGradient id="paint0_linear_259_1465" x1="15.3624" y1="16.0054" x2="2.63527" y2="3.2782" gradientUnits="userSpaceOnUse">
<stop stop-color="#008699"/>
<stop offset="1" stop-color="#34B4A3"/>
</linearGradient>
</defs>
</svg>
