<svg width="52" height="46" viewBox="0 0 52 46" fill="none" xmlns="http://www.w3.org/2000/svg">
<path d="M50.5556 20.125H48.75L49.1111 17.25H2.88889L3.25 20.125H1.44444C0.654514 20.125 0 20.7719 0 21.5625V24.4375C0 25.2281 0.654514 25.875 1.44444 25.875H3.97222L5.77778 40.25V41.6875C5.77778 42.4781 6.43229 43.125 7.22222 43.125H10.1111C10.9056 43.125 11.5556 42.4781 11.5556 41.6875V40.25H40.4444V41.6875C40.4444 42.4736 41.099 43.125 41.8889 43.125H44.7778C45.5677 43.125 46.2222 42.4736 46.2222 41.6875V40.25L48.0278 25.875H50.5556C51.35 25.875 52 25.2281 52 24.4375V21.5625C52 20.7719 51.35 20.125 50.5556 20.125Z" fill="url(#paint0_linear_42_82)"/>
<path opacity="0.4" d="M2.21179 3.96391L0.0451208 12.508C-0.180664 13.4945 0.507795 14.375 1.44443 14.375H10.2239L12.5378 2.875H3.61109C2.95658 2.875 2.36977 3.24336 2.21179 3.96391ZM51.9548 12.5871L49.7882 4.04297C49.6347 3.24336 49.0479 2.875 48.3889 2.875H39.4622L41.7751 14.375H50.5555C51.4944 14.375 52.0993 13.4945 51.9548 12.5871ZM13.1715 14.375H24.5555V2.875H15.4826L13.1715 14.375ZM27.4444 2.875V14.375H38.8285L36.5173 2.875H27.4444Z" fill="#2B8496"/>
<defs>
<linearGradient id="paint0_linear_42_82" x1="44.3803" y1="39.3368" x2="29.7865" y2="10.0081" gradientUnits="userSpaceOnUse">
<stop stop-color="#008699"/>
<stop offset="1" stop-color="#34B4A3"/>
</linearGradient>
</defs>
</svg>
