<svg width="59" height="53" viewBox="0 0 59 53" fill="none" xmlns="http://www.w3.org/2000/svg">
<path d="M24.8267 28.4135C14.1604 28.4135 5.51705 37.0569 5.51705 47.7232V49.5622C5.51705 51.0909 4.28721 52.3207 2.75852 52.3207C1.22984 52.3207 0 51.0909 0 49.5622V47.7232C0 34.011 11.1146 22.8965 24.8267 22.8965H33.1023C34.631 22.8965 35.8608 24.1263 35.8608 25.655C35.8608 27.1837 34.631 28.4135 33.1023 28.4135H24.8267Z" fill="url(#paint0_linear_269_78)"/>
<path opacity="0.4" d="M11.0801 27.0464C11.7812 16.5181 20.551 8.18503 31.2633 8.18503H43.2169C48.1248 8.18503 52.4005 5.438 54.5728 1.39216C54.9751 0.645064 56.136 0.610582 56.4348 1.40366C57.9865 5.59891 58.86 10.2539 58.86 15.1503C58.8485 33.5979 46.5616 48.5629 31.3782 48.6434H31.2633C21.8728 48.6434 13.9765 42.2413 11.7007 33.5634C15.1374 30.3682 19.7579 28.4142 24.8267 28.4142H33.1023C34.631 28.4142 35.8608 27.1844 35.8608 25.6557C35.8608 24.127 34.631 22.8972 33.1023 22.8972H24.8267C19.7464 22.8972 15.011 24.4258 11.0801 27.0464Z" fill="#2B8496"/>
<defs>
<linearGradient id="paint0_linear_269_78" x1="30.6061" y1="48.0129" x2="10.2018" y2="23.1452" gradientUnits="userSpaceOnUse">
<stop stop-color="#008699"/>
<stop offset="1" stop-color="#34B4A3"/>
</linearGradient>
</defs>
</svg>
