<svg width="62" height="50" viewBox="0 0 62 50" fill="none" xmlns="http://www.w3.org/2000/svg">
<path d="M24.7999 9.375C24.7999 7.7174 25.4531 6.12769 26.6158 4.95558C27.7786 3.78348 29.3556 3.125 30.9999 3.125C32.6442 3.125 34.2212 3.78348 35.384 4.95558C36.5467 6.12769 37.1999 7.7174 37.1999 9.375C37.1999 11.0326 36.5467 12.6223 35.384 13.7944C34.2212 14.9665 32.6442 15.625 30.9999 15.625C29.3556 15.625 27.7786 14.9665 26.6158 13.7944C25.4531 12.6223 24.7999 11.0326 24.7999 9.375ZM37.1999 25.5566V33.8281C38.1687 32.7246 38.7499 31.2793 38.7499 29.6973C38.7499 28.1152 38.1687 26.6602 37.1999 25.5664V25.5566ZM24.7999 33.8281V25.5566C23.8312 26.6602 23.2499 28.1055 23.2499 29.6875C23.2499 31.2695 23.8312 32.7148 24.7999 33.8184V33.8281ZM24.7999 39.5801C21.138 37.8223 18.5999 34.0625 18.5999 29.6973C18.5999 23.6523 23.4533 18.7598 29.4499 18.7598H32.5499C38.5465 18.7598 43.3999 23.6523 43.3999 29.6973C43.3999 34.0625 40.8618 37.8223 37.1999 39.5801V43.75C37.1999 45.4785 35.8146 46.875 34.0999 46.875H27.8999C26.1852 46.875 24.7999 45.4785 24.7999 43.75V39.5703V39.5801Z" fill="url(#paint0_linear_511_95)"/>
<path opacity="0.4" d="M49.6 15.625C47.9557 15.625 46.3787 14.9665 45.2159 13.7944C44.0532 12.6223 43.4 11.0326 43.4 9.375C43.4 7.7174 44.0532 6.12769 45.2159 4.95558C46.3787 3.78348 47.9557 3.125 49.6 3.125C51.2443 3.125 52.8213 3.78348 53.9841 4.95558C55.1468 6.12769 55.8 7.7174 55.8 9.375C55.8 11.0326 55.1468 12.6223 53.9841 13.7944C52.8213 14.9665 51.2443 15.625 49.6 15.625ZM57.35 29.6875C57.35 28.1055 56.7688 26.6504 55.8 25.5566V33.8281C56.7688 32.7148 57.35 31.2695 57.35 29.6875ZM46.5 29.6875C46.5 25.9961 45.0856 22.6367 42.78 20.127C44.3397 19.248 46.1416 18.75 48.05 18.75H51.15C57.1466 18.75 62 23.6426 62 29.6875C62 34.0527 59.4619 37.8125 55.8 39.5703V43.75C55.8 45.4785 54.4147 46.875 52.7 46.875H46.5C44.7853 46.875 43.4 45.4785 43.4 43.75V39.5703V38.5254C45.3375 36.1133 46.5 33.0371 46.5 29.6875ZM18.6 39.5703V43.75C18.6 45.4785 17.2147 46.875 15.5 46.875H9.3C7.58531 46.875 6.2 45.4785 6.2 43.75V39.5703C2.53813 37.8125 1.90735e-06 34.0527 1.90735e-06 29.6875C1.90735e-06 23.6426 4.85344 18.75 10.85 18.75H13.95C15.8584 18.75 17.6603 19.248 19.22 20.127C16.9144 22.6367 15.5 25.9961 15.5 29.6875C15.5 33.0371 16.6625 36.1133 18.6 38.5254V39.5703ZM12.4 15.625C10.7557 15.625 9.17867 14.9665 8.01594 13.7944C6.85322 12.6223 6.2 11.0326 6.2 9.375C6.2 7.7174 6.85322 6.12769 8.01594 4.95558C9.17867 3.78348 10.7557 3.125 12.4 3.125C14.0443 3.125 15.6213 3.78348 16.7841 4.95558C17.9468 6.12769 18.6 7.7174 18.6 9.375C18.6 11.0326 17.9468 12.6223 16.7841 13.7944C15.6213 14.9665 14.0443 15.625 12.4 15.625ZM4.65 29.6875C4.65 31.2695 5.23125 32.7148 6.2 33.8184V25.5566C5.23125 26.6602 4.65 28.1055 4.65 29.6875Z" fill="#AA4F49"/>
<defs>
<linearGradient id="paint0_linear_511_95" x1="22.2339" y1="40.4698" x2="48.7757" y2="25.4244" gradientUnits="userSpaceOnUse">
<stop stop-color="#5B2825"/>
<stop offset="1" stop-color="#AA4F49"/>
</linearGradient>
</defs>
</svg>
