<svg width="52" height="41" viewBox="0 0 52 41" fill="none" xmlns="http://www.w3.org/2000/svg">
<path d="M3.85531 19.2189C1.72575 19.2189 0 17.5212 0 15.4232C0 13.6775 1.20412 12.156 2.92012 11.7316L3.58475 11.5714C4.28106 11.3952 4.98712 11.8116 5.161 12.5003C5.33569 13.189 4.91156 13.8857 4.21525 14.0538L3.55062 14.222C2.99162 14.3581 2.6 14.8546 2.6 15.4232C2.6 16.1038 3.16225 16.5843 3.85531 16.5843H6.76C6.58937 17.4812 6.5 18.338 6.5 19.1468L3.85531 19.2189ZM37.05 18.8986C37.05 17.9456 37.7081 17.297 38.675 17.297C39.5687 17.297 40.3 17.9456 40.3 18.8986C40.3 19.7794 39.5687 20.5001 38.675 20.5001C37.7081 20.5001 37.05 19.7794 37.05 18.8986Z" fill="#C0A45B"/>
<path opacity="0.4" d="M41.7219 2.5625C42.3719 2.5625 42.9 3.08141 42.9 3.72123V6.2485C42.9 7.83004 42.0956 9.27305 40.9825 10.226C41.5025 10.6184 42.0062 11.0348 42.4206 11.4752C43.9156 10.21 44.8012 8.39219 44.7769 6.40625H48.1C48.815 6.40625 49.4 6.97961 49.4 7.6875V8.96875C49.4 11.5953 47.4012 13.7574 44.8256 14.0537L45.37 14.7824C46.2394 15.9436 47.4581 17.0166 48.9287 17.7053L49.4 17.9375H50.05C51.1306 17.9375 52 18.7943 52 19.8594V27.5469C52 28.6119 51.1306 29.4688 50.05 29.4688H46.5156C44.7119 31.1664 42.4775 32.3676 40.04 32.9361L38.9837 36.5797C38.6587 37.6768 37.6431 38.4375 36.4812 38.4375H33.8C32.3619 38.4375 31.2 37.2924 31.2 35.875V33.3125H22.1V35.875C22.1 37.2924 20.9381 38.4375 19.5 38.4375H16.7456C15.6569 38.4375 14.6412 37.6768 14.3162 36.5797L12.5206 30.6219C8.96188 28.5959 6.5 24.8643 6.5 20.5V19.2188C6.5 12.1398 12.3175 6.40625 19.5 6.40625H29.445C30.615 6.40625 31.7769 6.51275 32.9144 6.71936C33.5725 5.16023 34.9781 3.96147 36.7331 3.5899L41.4781 2.58812C41.5594 2.57131 41.6406 2.5625 41.7219 2.5625ZM38.675 20.5C39.5687 20.5 40.3 19.7793 40.3 18.8984C40.3 17.9455 39.5687 17.2969 38.675 17.2969C37.7081 17.2969 37.05 17.9455 37.05 18.8984C37.05 19.7793 37.7081 20.5 38.675 20.5Z" fill="#C0A45B"/>
</svg>
