<svg width="52" height="47" viewBox="0 0 52 47" fill="none" xmlns="http://www.w3.org/2000/svg">
<path d="M50.5556 20.9453H48.75L49.1111 18.0703H2.88889L3.25 20.9453H1.44444C0.654514 20.9453 0 21.5922 0 22.3828V25.2578C0 26.0484 0.654514 26.6953 1.44444 26.6953H3.97222L5.77778 41.0703V42.5078C5.77778 43.2984 6.43229 43.9453 7.22222 43.9453H10.1111C10.9056 43.9453 11.5556 43.2984 11.5556 42.5078V41.0703H40.4444V42.5078C40.4444 43.2939 41.099 43.9453 41.8889 43.9453H44.7778C45.5677 43.9453 46.2222 43.2939 46.2222 42.5078V41.0703L48.0278 26.6953H50.5556C51.35 26.6953 52 26.0484 52 25.2578V22.3828C52 21.5922 51.35 20.9453 50.5556 20.9453Z" fill="url(#paint0_linear_261_2087)"/>
<path opacity="0.4" d="M2.21179 4.78422L0.0451208 13.3284C-0.180664 14.3148 0.507794 15.1953 1.44443 15.1953H10.2239L12.5378 3.69531H3.61109C2.95658 3.69531 2.36977 4.06367 2.21179 4.78422ZM51.9548 13.4074L49.7882 4.86328C49.6347 4.06367 49.0479 3.69531 48.3889 3.69531H39.4622L41.7751 15.1953H50.5555C51.4944 15.1953 52.0993 14.3148 51.9548 13.4074ZM13.1715 15.1953H24.5555V3.69531H15.4826L13.1715 15.1953ZM27.4444 3.69531V15.1953H38.8285L36.5173 3.69531H27.4444Z" fill="#2B8496"/>
<defs>
<linearGradient id="paint0_linear_261_2087" x1="44.3803" y1="40.1571" x2="29.7865" y2="10.8284" gradientUnits="userSpaceOnUse">
<stop stop-color="#008699"/>
<stop offset="1" stop-color="#34B4A3"/>
</linearGradient>
</defs>
</svg>
