<svg width="48" height="42" viewBox="0 0 48 42" fill="none" xmlns="http://www.w3.org/2000/svg">
<path opacity="0.4" d="M45.5812 0.748552C45.1463 -0.220813 43.8009 -0.250812 43.2694 0.670919C40.3547 5.71649 34.5197 7.66085 29.2725 6.41117C26.9053 5.84793 24.3412 5.79665 21.6853 6.4119C15.554 7.83126 10.7072 12.8197 9.36654 18.993C8.88842 21.2908 8.91842 23.5221 9.32248 25.6127C2.05216 31.5189 0.0929954 39.0938 0.0626017 39.225C-0.227461 40.4325 0.518133 41.6494 1.72666 41.94C1.90216 41.9812 2.08029 42 2.25279 42C3.26998 42 4.19248 41.3049 4.43998 40.2731C4.46305 40.1779 5.82935 34.8235 10.905 30.1389C13.7653 35.5726 19.4175 38.9944 25.5019 38.9944C27.6459 38.9944 29.6878 38.5708 31.5666 37.8263C41.4281 34.5657 48 24.4877 48 12.5066C48 8.42847 47.1281 4.19664 45.5812 0.748552ZM35.8969 22.9877L29.2753 29.6776C28.8456 30.1072 28.1616 30.1072 27.7322 29.6776L21.1031 22.9877C19.1794 21.0443 19.2965 17.8212 21.4449 16.024C23.3199 14.4612 26.094 14.7443 27.8124 16.4832L28.4863 17.1571L29.1602 16.4832C30.8796 14.7442 33.6724 14.461 35.538 16.024C37.6969 17.8221 37.8187 21.0471 35.8969 22.9877Z" fill="#5CB1A2"/>
<path d="M36.5285 23.053L29.3439 30.6349C28.8776 31.1217 28.1354 31.1217 27.6695 30.6349L20.4767 23.053C18.3894 20.8504 18.5165 17.1976 20.8476 15.1608C22.8821 13.3896 25.892 13.7105 27.7566 15.6812L28.4878 16.4449L29.219 15.6812C31.0845 13.7103 34.1149 13.3894 36.1391 15.1608C38.4816 17.1987 38.6138 20.8536 36.5285 23.053Z" fill="url(#paint0_linear_249_37)"/>
<defs>
<linearGradient id="paint0_linear_249_37" x1="35.2159" y1="28.5111" x2="23.2698" y2="15.1596" gradientUnits="userSpaceOnUse">
<stop stop-color="#008699"/>
<stop offset="1" stop-color="#34B4A3"/>
</linearGradient>
</defs>
</svg>
