<svg width="74" height="45" viewBox="0 0 74 45" fill="none" xmlns="http://www.w3.org/2000/svg">
<path d="M12.1231 1.89786C13.5599 0.46113 15.8931 0.46113 17.3299 1.89786L28.3639 12.932C29.8007 14.3687 29.8007 16.7019 28.3639 18.1387C26.9272 19.5754 24.594 19.5754 23.1572 18.1387L18.3988 13.3802V30.2417C18.3988 32.2761 20.0424 33.9197 22.0768 33.9197H34.9499C36.9843 33.9197 38.628 35.5633 38.628 37.5978C38.628 39.6322 36.9843 41.2758 34.9499 41.2758H22.0768C15.9851 41.2758 11.0427 36.3334 11.0427 30.2417V13.3802L6.28426 18.1272C4.84753 19.5639 2.51428 19.5639 1.07755 18.1272C-0.359183 16.6904 -0.359183 14.3572 1.07755 12.9205L12.1116 1.88637L12.1231 1.89786Z" fill="url(#paint0_linear_269_77)"/>
<path opacity="0.4" d="M34.9497 8.17315C34.9497 6.13874 36.5933 4.49512 38.6277 4.49512H51.5009C57.5926 4.49512 62.5349 9.43747 62.5349 15.5292V32.3907L67.2934 27.6322C68.7301 26.1955 71.0634 26.1955 72.5001 27.6322C73.9368 29.069 73.9368 31.4022 72.5001 32.839L61.466 43.873C60.0293 45.3098 57.696 45.3098 56.2593 43.873L45.2252 32.839C43.7885 31.4022 43.7885 29.069 45.2252 27.6322C46.6619 26.1955 48.9952 26.1955 50.4319 27.6322L55.1789 32.3907V15.5292C55.1789 13.4948 53.5353 11.8512 51.5009 11.8512H38.6277C36.5933 11.8512 34.9497 10.2076 34.9497 8.17315Z" fill="#2B8496"/>
<defs>
<linearGradient id="paint0_linear_269_77" x1="32.9677" y1="35.3529" x2="4.39364" y2="8.06966" gradientUnits="userSpaceOnUse">
<stop stop-color="#008699"/>
<stop offset="1" stop-color="#34B4A3"/>
</linearGradient>
</defs>
</svg>
