<svg width="73" height="38" viewBox="0 0 73 38" fill="none" xmlns="http://www.w3.org/2000/svg">
<path opacity="0.4" d="M0 17.5975C0 8.33594 7.41406 0.820312 16.5505 0.820312C20.9419 0.820312 25.1508 2.58937 28.2533 5.73438L36.5 14.0825L44.7353 5.73438C47.8492 2.58937 52.0581 0.820312 56.4495 0.820312C65.5859 0.820312 73 8.33594 73 17.5975V21.0316C73 30.3047 65.5859 37.8203 56.4495 37.8203C52.0581 37.8203 47.8492 36.0513 44.7467 32.9062L36.5 24.5581L28.2647 32.9062C25.1508 36.0513 20.9419 37.8203 16.5505 37.8203C7.41406 37.8203 0 30.3047 0 21.0431V17.5975ZM31.333 19.3203L23.0977 10.9722C21.3639 9.21469 19.0028 8.22031 16.5505 8.22031C11.4405 8.22031 7.3 12.4175 7.3 17.5975V21.0316C7.3 26.2116 11.4405 30.4088 16.5505 30.4088C19.0028 30.4088 21.3639 29.4259 23.0977 27.6569L31.333 19.3203ZM41.6556 19.3203L49.8909 27.6684C51.6247 29.4259 53.9858 30.4203 56.4381 30.4203C61.5481 30.4203 65.6886 26.2231 65.6886 21.0431V17.5975C65.6886 12.4175 61.5481 8.22031 56.4381 8.22031C53.9858 8.22031 51.6247 9.20312 49.8909 10.9722L41.667 19.3203H41.6556Z" fill="url(#paint0_linear_269_66)"/>
<defs>
<linearGradient id="paint0_linear_269_66" x1="62.3032" y1="32.4034" x2="41.2038" y2="-9.22517" gradientUnits="userSpaceOnUse">
<stop stop-color="#008699"/>
<stop offset="1" stop-color="#34B4A3"/>
</linearGradient>
</defs>
</svg>
