<svg width="62" height="53" viewBox="0 0 62 53" fill="none" xmlns="http://www.w3.org/2000/svg">
<path d="M38.1482 14.2449C39.47 13.4863 39.9298 11.8082 39.1712 10.4864C38.4126 9.16463 36.7345 8.70487 35.4127 9.46347L14.7123 21.2906V27.6467L38.1482 14.2449ZM60.2164 14.2449C61.5382 13.4863 61.998 11.8082 61.2394 10.4864C60.4808 9.16463 58.8027 8.70487 57.4809 9.46347L36.7805 21.2906V27.6467L60.2164 14.2449ZM11.9538 33.0029C10.9423 33.0029 10.1147 33.8304 10.1147 34.8419V40.3589C10.1147 41.3704 10.9423 42.198 11.9538 42.198H17.4708C18.4823 42.198 19.3098 41.3704 19.3098 40.3589V34.8419C19.3098 33.8304 18.4823 33.0029 17.4708 33.0029H11.9538ZM26.6659 33.0029C25.6544 33.0029 24.8269 33.8304 24.8269 34.8419V40.3589C24.8269 41.3704 25.6544 42.198 26.6659 42.198H32.1829C33.1944 42.198 34.022 41.3704 34.022 40.3589V34.8419C34.022 33.8304 33.1944 33.0029 32.1829 33.0029H26.6659ZM39.539 34.8419V40.3589C39.539 41.3704 40.3666 42.198 41.378 42.198H46.8951C47.9065 42.198 48.7341 41.3704 48.7341 40.3589V34.8419C48.7341 33.8304 47.9065 33.0029 46.8951 33.0029H41.378C40.3666 33.0029 39.539 33.8304 39.539 34.8419Z" fill="url(#paint0_linear_269_76)"/>
<path opacity="0.4" d="M0 4.49834C0 2.46393 1.64362 0.820312 3.67803 0.820312H11.0341C13.0685 0.820312 14.7121 2.46393 14.7121 4.49834V21.2909V21.9V27.647L36.7803 15.0267V21.2794V21.8885V27.6355L58.8485 15.0267V32.0836V46.7957C58.8485 49.8416 56.3773 52.3128 53.3315 52.3128H5.51705C2.47118 52.3128 0 49.8416 0 46.7957V37.6006V32.0836V4.49834ZM11.9536 33.0031C10.9421 33.0031 10.1146 33.8307 10.1146 34.8421V40.3592C10.1146 41.3706 10.9421 42.1982 11.9536 42.1982H17.4707C18.4821 42.1982 19.3097 41.3706 19.3097 40.3592V34.8421C19.3097 33.8307 18.4821 33.0031 17.4707 33.0031H11.9536ZM26.6657 33.0031C25.6543 33.0031 24.8267 33.8307 24.8267 34.8421V40.3592C24.8267 41.3706 25.6543 42.1982 26.6657 42.1982H32.1828C33.1942 42.1982 34.0218 41.3706 34.0218 40.3592V34.8421C34.0218 33.8307 33.1942 33.0031 32.1828 33.0031H26.6657ZM39.5388 34.8421V40.3592C39.5388 41.3706 40.3664 42.1982 41.3779 42.1982H46.8949C47.9064 42.1982 48.7339 41.3706 48.7339 40.3592V34.8421C48.7339 33.8307 47.9064 33.0031 46.8949 33.0031H41.3779C40.3664 33.0031 39.5388 33.8307 39.5388 34.8421Z" fill="#2B8496"/>
<defs>
<linearGradient id="paint0_linear_269_76" x1="54.0602" y1="37.3519" x2="32.7686" y2="4.23101" gradientUnits="userSpaceOnUse">
<stop stop-color="#008699"/>
<stop offset="1" stop-color="#34B4A3"/>
</linearGradient>
</defs>
</svg>
