<svg width="48" height="39" viewBox="0 0 48 39" fill="none" xmlns="http://www.w3.org/2000/svg">
<g clip-path="url(#clip0_57_473)">
<path d="M47.955 10.6869C47.4186 14.139 44.1075 14.6318 41.673 13.3819C40.1655 12.547 38.6085 13.2152 37.5322 13.9944C36.624 14.6512 35.7037 15.61 34.7947 16.8432C33.0367 19.2274 31.9132 21.8424 31.644 22.7351C29.43 30.0758 20.679 31.2206 16.434 26.1209C12.9525 21.9984 13.83 14.724 19.965 12.4465C23.3175 11.1813 24.5505 12.4431 29.64 10.7897C31.977 10.0302 33.8025 8.96847 34.7805 7.79923C35.5447 6.88288 35.8042 5.90941 35.5657 4.82015C35.017 2.26458 37.0762 -0.118073 39.6705 0.00532497C42.8497 0.154393 44.646 3.66919 42.7822 6.27427C45.585 5.37697 48.405 7.73144 47.955 10.6869Z" fill="#8B8EA2"/>
<path opacity="0.4" d="M36.6525 14.7697C40.686 19.1983 43.2015 24.7939 43.2015 29.25C43.2 38.0021 33.5325 39 21.6 39C9.6675 39 0 38.0021 0 29.1814C0 20.4292 9.6675 7.2439 21.5325 7.2439C24.9773 7.24405 28.2225 8.36667 31.11 10.1422C30.6269 10.3487 30.1193 10.5447 29.5763 10.721C24.555 12.4388 23.3175 11.182 19.965 12.4464C13.827 14.7232 12.9465 21.9984 16.425 26.1269C20.676 31.2236 29.4225 30.0817 31.635 22.7411C31.9039 21.8483 33.0278 19.2333 34.7858 16.8492C35.4075 16.0113 36.03 15.3486 36.6525 14.7697Z" fill="#8B8EA2"/>
</g>
<defs>
<clipPath id="clip0_57_473">
<rect width="48" height="39" fill="white"/>
</clipPath>
</defs>
</svg>
