<svg width="31" height="32" viewBox="0 0 31 32" fill="none" xmlns="http://www.w3.org/2000/svg">
<path d="M29.9013 0.83917C29.8444 0.829741 29.797 0.820312 29.7401 0.820312C29.6169 0.820312 29.5031 0.848598 29.3988 0.90517C29.3988 0.90517 28.7067 1.27288 27.9292 1.62174C27.5405 1.80088 27.1423 1.9706 26.8104 2.08374C26.4786 2.19688 26.1563 2.21574 26.289 2.2346C21.3019 1.60288 14.1437 4.12031 8.0948 10.1357C4.63421 13.5772 1.92262 17.0469 0.680596 20.3563C-0.551943 23.6657 -0.20112 26.9469 2.48202 29.4266C5.32635 32.0572 8.76796 32.4155 12.1811 31.1803C15.5943 29.9452 19.0644 27.2203 22.4776 23.7223C28.7162 17.3203 30.4322 10.9277 29.7116 4.9406C29.7306 5.06317 29.7306 4.72374 29.7875 4.38431C29.8444 4.05431 29.9392 3.63946 30.0245 3.23403C30.2047 2.4326 30.3943 1.68774 30.3943 1.68774C30.4891 1.3106 30.2616 0.933455 29.8823 0.83917H29.9013ZM4.34031 23.4489C4.22653 23.8166 3.83782 24.0335 3.45857 23.9203C3.07933 23.8072 2.87075 23.4206 2.98452 23.0435C3.78093 20.2243 6.98552 16.2549 10.7305 12.7003C14.4756 9.15517 18.6567 6.09088 21.8992 5.72317C21.9182 5.72317 21.9277 5.72317 21.9467 5.72317C21.9562 5.72317 21.9656 5.72317 21.9751 5.72317C22.3449 5.71374 22.6672 5.98717 22.6957 6.36431C22.7336 6.75088 22.4492 7.09031 22.0604 7.12803C19.6238 7.41088 15.3478 10.2772 11.6976 13.728C8.04739 17.1789 4.93761 21.2897 4.34031 23.43C4.34031 23.43 4.34031 23.4489 4.34031 23.4583V23.4489ZM5.98051 25.8155C5.71504 25.5326 5.72454 25.0895 5.99949 24.8255L22.9042 8.71203C23.037 8.58003 23.2077 8.51403 23.3973 8.51403C23.5964 8.51403 23.786 8.58946 23.9187 8.74031C24.1842 9.02317 24.1652 9.46631 23.8808 9.73031L6.97604 25.8437C6.69161 26.1077 6.24598 26.0983 5.98051 25.8249V25.8155ZM26.8958 10.7863C26.1657 13.8412 23.4731 17.8766 20.0599 21.4406C16.6467 25.0046 12.5414 28.0689 8.73951 28.8232C8.72055 28.8232 8.70159 28.8232 8.68263 28.8326C8.2939 28.8892 7.93361 28.6346 7.87673 28.248C7.81984 27.8615 8.07586 27.5032 8.46458 27.4466C11.7166 26.8055 15.746 23.9203 19.036 20.4789C22.3259 17.0375 24.9142 13.0115 25.521 10.4657C25.5969 10.1452 25.8908 9.90946 26.2226 9.91888C26.2795 9.91888 26.3269 9.91888 26.3838 9.93774C26.763 10.032 26.9906 10.4092 26.8958 10.7863Z" fill="#1F2E69"/>
</svg>
