<svg width="92" height="101" viewBox="0 0 92 101" fill="none" xmlns="http://www.w3.org/2000/svg">
<g clip-path="url(#clip0_259_1221)">
<path d="M74.0745 0.820312C71.287 0.820312 69.5375 2.35741 68.5737 3.87973C67.4024 3.74671 66.0532 3.90929 65.045 4.47092C61.8127 6.24449 60.419 9.92466 61.8424 13.0136C62.2872 13.9743 62.9247 14.802 63.7402 15.4227C60.6859 18.7925 59.0253 23.5812 57.4537 28.0742C54.5625 36.41 52.0419 43.593 42.8641 43.593C20.8019 43.593 8.65882 33.3506 6.61273 30.6163C5.39694 28.9758 4.34424 27.7491 2.81708 27.7491C0.948912 27.7491 0 29.2418 0 32.2569C0 36.9569 3.92909 43.5191 8.43642 47.4505C6.40516 47.9974 4.46285 48.7955 3.33602 49.9335C2.35745 50.909 1.92748 51.9288 2.16471 52.9338C2.50572 54.3675 3.85496 54.7961 4.52216 55.0178C4.99662 55.1656 5.67865 55.4464 6.41998 55.8011C5.81209 56.1706 5.33763 56.6288 4.84835 57.2347C4.24045 58.0033 4.0477 58.7866 4.25528 59.5847C4.58147 60.8262 5.73795 61.3287 6.41998 61.6096C7.72474 62.1564 8.82192 63.2501 9.6967 64.8759C11.1052 67.4919 15.8053 73.8472 23.1149 79.2862C33.6716 81.6509 42.0783 80.572 48.0535 76.0198C54.2956 71.2755 56.4899 63.5753 56.4899 58.4023C56.4899 57.2495 57.424 56.3184 58.5805 56.3184C59.737 56.3184 60.6711 57.2495 60.6711 58.4023C60.6711 64.8168 58.0319 73.6698 50.5889 79.3453C45.9036 82.9072 40.0619 84.6956 33.1823 84.6956C32.8561 84.6956 32.5299 84.6364 32.2037 84.6364C36.3404 86.4987 40.9663 87.888 46.0074 88.2279V93.2531C42.2859 94.6128 40.2398 97.3323 40.1212 97.4949C39.4392 98.426 39.6319 99.7562 40.5808 100.436C40.9515 100.702 41.3963 100.82 41.8263 100.82C42.4786 100.82 43.1162 100.539 43.5313 99.9779C43.561 99.9483 46.0371 96.6524 50.2034 96.6524C54.3697 96.6524 56.7865 99.8596 56.8754 99.9779C57.5426 100.909 58.877 101.101 59.8259 100.436C60.76 99.7562 60.9676 98.4408 60.2856 97.4949C60.1373 97.2879 56.5492 92.4697 50.2034 92.4697V88.2279C62.1241 87.6072 83.7118 80.173 83.7118 59.2004C83.7118 53.5989 82.7185 49.7562 81.814 46.3568C81.1172 43.6965 80.5093 41.4056 80.5093 38.7304C80.5093 35.0651 82.2292 32.7594 83.0595 31.8874C83.1929 31.8874 83.3857 31.8874 83.5784 31.8874C85.1056 31.8874 87.2406 32.2717 88.6195 33.4541C89.2422 33.9714 90.1022 34.1192 90.8435 33.7792C91.5849 33.4393 92.0148 32.7003 92.0148 31.8874C92.0148 25 89.2422 22.7092 87.8337 21.7189C87.6261 19.1325 86.4548 16.8564 84.6311 15.068C85.1204 14.6098 85.5355 14.1073 85.8765 13.5014C86.7068 11.9938 86.9441 10.2498 86.4696 8.60926C85.9952 6.99826 84.8683 5.68286 83.4005 4.88475C82.333 4.30834 80.9244 4.16054 79.6641 4.29356C78.6856 2.57911 76.936 0.835092 74.1041 0.835092L74.0745 0.820312ZM75.913 19.4133C77.6477 19.4133 79.0562 20.8174 79.0562 22.5466C79.0562 24.2758 77.6477 25.6799 75.913 25.6799C74.1782 25.6799 72.7697 24.2758 72.7697 22.5466C72.7697 20.8174 74.1782 19.4133 75.913 19.4133Z" fill="#2453A0"/>
</g>
<defs>
<clipPath id="clip0_259_1221">
<rect width="92" height="100" fill="white" transform="translate(0 0.820312)"/>
</clipPath>
</defs>
</svg>
