<svg width="37" height="29" viewBox="0 0 37 29" fill="none" xmlns="http://www.w3.org/2000/svg">
<path d="M29.5064 3.02402C29.6107 3.16545 29.7719 3.32574 29.952 3.31631C30.208 3.30688 30.3408 2.9486 30.7011 2.27917C30.7674 2.1566 31.5543 0.685738 32.0474 0.648024C32.1042 0.648024 32.2939 0.629167 32.3508 0.723452C32.3602 0.742309 32.3792 0.761167 32.3697 0.80831C32.3508 1.08174 32.4361 1.14774 32.0948 2.11888C31.8672 2.76002 31.9241 3.32574 31.9715 3.6086C32.3602 3.8066 32.73 4.08002 33.005 4.43831C33.0239 4.4666 33.0618 4.50431 33.0997 4.57031C33.3557 4.91917 34.0195 5.83374 35.8683 7.0406C36.4371 7.41774 36.6552 7.86088 36.6552 8.67174C36.6552 9.13374 36.3613 11.0006 34.977 11.0006H31.2984C29.9805 11.0006 28.1602 14.9512 28.1128 15.2435C28.1128 15.2623 28.1033 15.3095 28.0938 15.3283C27.3542 18.138 26.7474 19.7692 26.5957 20.1463L25.951 25.5772L26.5768 27.4346C26.6621 27.6986 26.5768 28.0003 26.3397 28.1795C26.2165 28.2643 26.0743 28.3115 25.9226 28.3115H22.5948C22.225 28.3115 21.9216 28.0097 21.9216 27.642V26.3126C21.9216 24.3609 21.4475 22.0037 21.22 20.9855H17.2284C14.8013 20.9855 13.1231 20.8157 12.3646 20.6555L12.0897 20.5989C11.4545 20.4669 10.9046 20.3443 9.47293 20.3255C8.686 21.5889 7.17852 24.2949 7.17852 25.6526C7.17852 26.0015 7.53881 26.8689 7.77584 27.3497C7.90857 27.6232 7.85169 27.9626 7.60518 28.1606C7.48193 28.2643 7.31123 28.3115 7.15005 28.3115H3.83168C3.46191 28.3115 3.15856 28.0097 3.15856 27.642V21.6455C3.15856 20.5612 3.33869 19.8446 3.50935 19.1563C3.67053 18.5152 3.82219 17.9023 3.82219 16.9877C3.82219 16.818 3.74635 16.3466 3.66102 15.8375C3.46192 14.64 3.15856 12.8203 3.15856 10.9912C3.15856 10.5197 3.18701 10.0955 3.22493 9.69945C3.17753 10.1803 2.90257 10.6989 2.80776 11.1797C2.71295 11.6606 2.63705 12.1415 2.58017 12.6223C2.54224 12.9995 2.419 13.4992 2.47589 13.8763C2.54226 14.3006 2.84567 14.6495 2.91204 15.0926C2.96893 15.5263 2.93097 15.9695 2.88357 16.4032C2.82668 16.9972 2.76031 17.6006 2.70343 18.1946C2.67498 18.5152 2.60865 18.8829 2.32422 19.0432C2.15356 19.1375 1.94493 19.128 1.74583 19.1092L0.958941 19.0526C0.399558 19.0055 -0.0271 18.534 0.00134325 17.9777C0.0297865 17.2895 0.0961239 16.6012 0.266783 15.9317C0.475367 15.1209 1.1675 14.4326 1.1675 13.6406C1.1675 13.6312 1.1675 13.6123 1.1675 13.6029C1.23386 12.4997 1.3856 10.614 2.09668 8.91688C2.44748 8.06831 2.94996 7.25745 3.68 6.65402C4.41005 6.04117 5.37712 5.6546 6.52433 5.6546C8.08871 5.6546 9.42553 6.32402 10.5443 6.32402C12.2604 6.32402 16.3752 4.9946 19.5798 4.9946C20.3857 4.9946 21.1157 5.48488 22.2534 5.34345C23.3248 5.20202 24.5194 4.68345 25.1736 4.48545C25.2305 4.4666 25.4391 4.41002 25.6761 4.27802C25.714 4.25917 25.7424 4.24031 25.7614 4.23088C25.2399 3.30688 25.2779 2.21317 25.2779 1.66631C25.2779 1.2986 25.5813 0.996881 25.951 0.996881C26.3208 0.996881 26.7854 1.09117 27.743 1.51545C28.217 1.73231 28.4635 1.84545 28.6911 2.03402C29.1083 2.36402 29.3642 2.74117 29.5064 3.00517V3.02402Z" fill="#1F2E69"/>
</svg>
