<svg width="30" height="31" viewBox="0 0 30 31" fill="none" xmlns="http://www.w3.org/2000/svg">
<path d="M8.0684 0.658203C10.0689 0.658203 12.0884 2.18563 13.6148 4.57106C15.0749 6.85277 16.0325 9.86992 16.1178 12.7456C10.1258 13.1699 6.79796 17.6485 6.72211 21.9196C3.29944 21.3068 0 18.4028 0 13.1416C0 10.1433 0.995545 6.95649 2.522 4.57106C4.04845 2.18563 6.0679 0.658203 8.0684 0.658203Z" fill="#1F2E69"/>
<path d="M16.9142 14.0273H17.0375C20.0525 14.0273 23.257 15.0173 25.6557 16.5353C28.0545 18.0533 29.5904 20.0616 29.5904 22.0511C29.5904 24.0405 28.0545 26.0488 25.6557 27.5668C23.257 29.0848 20.0525 30.0748 17.0375 30.0748C11.4342 30.0748 8.46654 26.3788 8.10626 22.7771V22.7582C8.10626 22.7582 8.10626 22.7299 8.10626 22.7205C8.10626 22.6545 8.1063 22.5791 8.08734 22.5131C8.07786 22.3622 8.06836 22.2113 8.06836 22.0511C8.06836 18.3079 10.9506 14.2065 16.7056 14.0462H16.7436C16.8005 14.0462 16.8573 14.0462 16.9142 14.0273Z" fill="#1F2E69"/>
</svg>
