<svg width="31" height="29" viewBox="0 0 31 29" fill="none" xmlns="http://www.w3.org/2000/svg">
<path d="M5.61281 10.596C8.71267 10.596 11.2256 8.27431 11.2256 5.41032C11.2256 2.54633 8.71267 0.224609 5.61281 0.224609C2.51295 0.224609 0 2.54633 0 5.41032C0 8.27431 2.51295 10.596 5.61281 10.596Z" fill="#1F2E69"/>
<path d="M25.2576 14.5752C28.1375 14.5752 30.4722 12.435 30.4722 9.79493C30.4722 7.15486 28.1375 5.01465 25.2576 5.01465C22.3776 5.01465 20.043 7.15486 20.043 9.79493C20.043 12.435 22.3776 14.5752 25.2576 14.5752Z" fill="#1F2E69"/>
<path d="M10.4292 14.584C13.0555 14.584 15.2171 16.2434 15.8524 18.4308C13.6054 19.468 12.0315 21.6271 12.0315 24.154C12.0315 24.352 12.041 24.5406 12.0599 24.7291C11.548 24.8706 10.9981 24.9554 10.4292 24.9554C7.29097 24.9554 4.81641 22.6171 4.81641 19.7697C4.81641 16.9223 7.29097 14.584 10.4292 14.584Z" fill="#1F2E69"/>
<path d="M18.8484 28.9346C21.7283 28.9346 24.063 26.7944 24.063 24.1543C24.063 21.5142 21.7283 19.374 18.8484 19.374C15.9684 19.374 13.6338 21.5142 13.6338 24.1543C13.6338 26.7944 15.9684 28.9346 18.8484 28.9346Z" fill="#1F2E69"/>
</svg>
