<svg width="41" height="33" viewBox="0 0 41 33" fill="none" xmlns="http://www.w3.org/2000/svg">
<path d="M14.2027 7.80637C13.9751 7.73095 13.5011 7.64609 13.0555 8.0798C12.5245 8.6078 12.4108 9.22066 12.3823 9.4658C13.8234 11.9832 16.298 15.9432 17.2177 16.5938C17.4073 16.5467 18.071 16.2449 18.7631 14.4252C18.6019 14.2178 18.2132 13.7652 17.2651 12.7281C15.5111 10.8235 14.4776 8.4758 14.2027 7.79694V7.80637Z" fill="#559497"/>
<path d="M9.63288 12.209C9.63288 12.209 9.576 12.209 9.53807 12.209C9.26312 12.209 8.9218 12.2656 8.81751 12.4636L8.56152 12.9727C8.75114 13.6516 9.53807 16.1878 10.7896 17.6964C11.9937 19.139 12.9133 19.4973 13.1409 19.5727C13.3495 19.535 14.0131 19.3464 14.5062 18.677L13.596 17.951C12.4393 17.027 10.1638 13.1518 9.63288 12.2184V12.209Z" fill="#559497"/>
<path d="M11.6711 10.0407C11.491 10.069 11.1971 10.1821 10.9695 10.6347L10.4102 11.7472C11.254 13.2087 13.226 16.4615 14.1362 17.1875L15.2645 18.0833C15.4636 18.0833 15.9945 17.9607 16.497 17.1687C15.0654 15.8298 12.3633 11.2287 11.6711 10.0312V10.0407Z" fill="#559497"/>
<path d="M5.09137 23.2978C5.09137 23.2978 5.10086 23.2978 5.11034 23.2978C5.14826 23.2978 5.19567 23.279 5.24307 23.279C5.5275 23.1093 5.84038 22.9867 6.16274 22.8924C6.24807 22.8453 6.32391 22.7887 6.39976 22.7416L4.25704 17.6973C3.90624 17.9707 3.48907 18.3196 3.25205 19.0078C2.98658 19.7716 3.20464 20.8558 3.83039 21.9213C4.38029 22.8641 4.94916 23.2884 5.09137 23.3073V23.2978Z" fill="#559497"/>
<path d="M10.1165 18.3001C8.96931 16.9141 8.20134 14.8398 7.86002 13.7461C7.7178 13.9064 7.57559 14.095 7.4713 14.293L6.69385 15.8298C6.79814 16.3767 7.27219 18.3661 8.54266 19.5541C9.53817 20.4875 10.1544 21.0627 10.4768 21.3738H10.5147C10.5147 21.3738 11.8516 21.5152 12.2118 20.8175L12.4773 20.2895C11.9558 20.0349 11.112 19.4881 10.1165 18.2907V18.3001Z" fill="#559497"/>
<path d="M24.4043 1.43272C23.7501 1.26301 23.1338 1.26301 23.039 1.38558L22.7925 1.87587C23.9966 5.72272 26.8978 7.35387 27.4382 7.62729C27.5899 7.60844 27.8743 7.56129 28.1872 7.45758C27.9312 7.11815 27.4192 6.47701 26.3668 5.24187C25.2576 3.93129 24.6128 2.10215 24.4043 1.42329V1.43272Z" fill="#559497"/>
<path d="M18.0237 8.07949C17.4833 6.87263 17.0187 5.92034 16.7911 5.46777C16.7911 5.46777 16.7912 5.46777 16.7817 5.46777C15.7482 5.70349 15.3595 6.0052 15.2931 6.12777C15.0656 6.58035 15.0087 7.14606 14.9897 7.35349C15.1794 7.83434 16.1938 10.2103 17.9004 12.0678C18.8201 13.0578 19.3036 13.6141 19.5501 13.9535C19.9199 13.9723 20.8396 13.8309 21.5317 12.1998C20.8016 11.5398 18.7063 9.58806 18.0237 8.07006V8.07949Z" fill="#559497"/>
<path d="M27.9694 1.19706C26.5283 0.39563 25.6086 0.678487 25.2578 1.12163C25.438 1.71563 26.0353 3.44106 27.0403 4.61963C28.0927 5.85477 28.69 6.57134 29.0028 7.01449C29.1925 6.84477 29.3442 6.62792 29.4105 6.35449C29.7708 4.8082 29.5717 2.09277 27.9789 1.20649L27.9694 1.19706Z" fill="#559497"/>
<path d="M22.0057 2.36621C21.6075 2.4605 20.9438 2.67735 20.4793 3.14878L19.9104 3.72393C20.4508 4.64793 22.0721 7.33507 22.9443 8.15535C23.8545 9.01335 24.6509 9.51307 24.869 9.64507C25.0586 9.66393 25.9024 9.66393 26.7368 8.30621C25.7033 7.72164 23.2098 5.96793 22.0152 2.36621H22.0057Z" fill="#559497"/>
<path d="M19.0287 4.00689C18.8201 3.92203 18.3176 3.80888 17.853 4.27088C17.597 4.53488 17.4927 4.68574 17.4453 4.76117C17.5496 4.9686 18.128 6.11889 18.8296 7.6746C19.4553 9.07946 21.6549 11.0877 22.2143 11.5875C22.5461 11.5497 23.3994 11.3235 24.0915 10.2486C23.6933 9.9846 23.0391 9.5226 22.3281 8.84374C21.2851 7.85374 19.4079 4.67631 19.0192 4.00689H19.0287Z" fill="#559497"/>
<path d="M5.91633 16.4521C5.5276 16.6596 5.16732 16.8764 4.95874 17.0273L7.25316 22.4393C8.12542 22.5053 9.28211 22.5336 9.70876 22.411C9.75616 22.3356 9.81305 22.2601 9.85098 22.1753C9.86994 22.1281 9.8889 22.0716 9.89838 22.0244C9.89838 21.9867 9.9363 21.949 9.95527 21.9113L9.69928 21.883V21.9113C9.35796 21.5813 8.79858 21.0533 7.95476 20.2613C6.71274 19.1016 6.14387 17.3667 5.91633 16.4521Z" fill="#559497"/>
<path d="M2.30406 20.0352C2.1334 20.1954 1.94378 20.3369 1.76364 20.4689C1.72571 20.4972 1.67831 20.5254 1.64038 20.5443C1.62142 20.5726 1.60246 20.6009 1.5835 20.6292C1.56453 20.6574 1.53609 20.6763 1.51713 20.7046C0.986189 21.6946 0.0191189 23.552 0.000156713 24.1932C-0.0188054 25.0794 1.68779 24.2309 2.5316 24.2592C3.04358 24.2686 3.28061 24.0517 3.3849 23.8726C3.3849 23.8726 3.39438 23.882 3.40386 23.8914C3.50815 23.6463 3.60297 23.4012 3.7357 23.1654C3.7357 23.1466 3.75466 23.1466 3.76414 23.1277C3.12891 22.2226 2.61693 21.176 2.29458 20.0823C2.29458 20.0729 2.29458 20.054 2.29458 20.0446L2.30406 20.0352Z" fill="#559497"/>
<path d="M19.171 31.727C19.3227 31.9155 19.683 32.2361 20.2898 32.0947C21.0198 31.925 21.4464 31.4724 21.5981 31.2838C21.7214 28.3892 21.7498 23.7315 21.3232 22.685C21.1336 22.6284 20.413 22.5247 18.8486 23.6938C18.8771 23.9484 18.9529 24.5424 19.2089 25.919C19.6735 28.4647 19.2942 31.001 19.1615 31.7175L19.171 31.727Z" fill="#559497"/>
<path d="M25.4 30.4162C25.4 30.4162 25.4474 30.4539 25.4758 30.4727C25.7128 30.6236 26.0257 30.7556 26.2153 30.633L26.6989 30.3407C26.898 29.6619 27.5901 27.1067 27.3436 25.1644C27.0971 23.307 26.5092 22.515 26.3576 22.3359C26.1584 22.2604 25.4948 22.0624 24.7268 22.3736L25.106 23.4673C25.5896 24.8627 25.4379 29.3413 25.4 30.4162Z" fill="#559497"/>
<path d="M22.5081 31.17C22.6788 31.2454 22.9917 31.302 23.4183 31.038L24.4897 30.3968C24.5561 28.7185 24.6319 24.9094 24.2527 23.8157L23.7786 22.458C23.608 22.3637 23.096 22.1751 22.2427 22.5805C22.7357 24.4662 22.565 29.7934 22.5081 31.1794V31.17Z" fill="#559497"/>
<path d="M35.1748 23.4385C35.1748 23.4385 35.1748 23.4385 35.1653 23.4291C35.1274 23.4103 35.08 23.3914 35.0421 23.382C34.7102 23.3725 34.3784 23.3065 34.056 23.2217C33.9612 23.2217 33.8664 23.2217 33.7716 23.2217L32.8804 28.6243C33.326 28.5771 33.8664 28.5111 34.4353 28.0491C35.061 27.54 35.4687 26.5123 35.5066 25.2771C35.5446 24.1928 35.2886 23.5328 35.1748 23.4385Z" fill="#559497"/>
<path d="M28.2443 25.0038C28.4813 26.7858 28.0073 28.9449 27.7134 30.048C27.9125 29.9915 28.14 29.9066 28.3391 29.784L29.8182 28.8883C30.0173 28.3698 30.6904 26.4369 30.2448 24.7586C29.9035 23.4386 29.6949 22.6278 29.5811 22.194L29.5527 22.1658C29.5527 22.1658 28.4908 21.336 27.8176 21.7415L27.3057 22.0526C27.6185 22.5429 28.0357 23.4575 28.2348 24.9943L28.2443 25.0038Z" fill="#559497"/>
<path d="M7.12061 31.7263C7.58518 32.2072 8.09716 32.5466 8.24885 32.49L8.72291 32.2072C9.76583 28.3132 8.18249 25.3903 7.86961 24.8718C7.73688 24.8058 7.46192 24.6926 7.13957 24.6172C7.17749 25.032 7.2723 25.8523 7.49985 27.4552C7.74636 29.1523 7.30075 31.0475 7.12061 31.7263Z" fill="#559497"/>
<path d="M16.08 29.4634C15.8904 30.7646 15.7766 31.8206 15.7292 32.3297C15.7292 32.3297 15.7292 32.3297 15.7387 32.3297C16.7342 32.6786 17.2272 32.6314 17.3504 32.556C17.7866 32.292 18.1374 31.8489 18.2606 31.6791C18.3554 31.17 18.7726 28.6243 18.3175 26.1446C18.071 24.8151 17.9572 24.0891 17.9288 23.6743C17.6254 23.4574 16.7721 23.0897 15.312 24.1174C15.5775 25.0603 16.3075 27.8323 16.0705 29.4634H16.08Z" fill="#559497"/>
<path d="M3.98207 30.0295C4.769 31.472 5.70763 31.7172 6.23857 31.538C6.39975 30.944 6.81692 29.162 6.59885 27.6346C6.3713 26.0317 6.24805 25.1172 6.21961 24.5703C5.9731 24.6175 5.72659 24.7212 5.52749 24.9192C4.38976 26.0412 3.10981 28.436 3.98207 30.0389V30.0295Z" fill="#559497"/>
<path d="M9.6518 32.1984C10.0405 32.3304 10.7137 32.5002 11.3679 32.3493L12.1548 32.1702C12.1927 31.0953 12.2591 27.965 11.9652 26.8147C11.6523 25.6079 11.2446 24.7593 11.1308 24.533C10.9791 24.4104 10.2681 23.9673 8.83643 24.6744C9.39581 25.721 10.5715 28.5213 9.6518 32.1984Z" fill="#559497"/>
<path d="M13.0463 32.3865C13.179 32.5656 13.5393 32.9333 14.184 32.7825C14.5443 32.6976 14.7149 32.6222 14.7908 32.575C14.8097 32.3488 14.933 31.0665 15.1795 29.3693C15.3976 27.8419 14.6106 24.985 14.402 24.2685C14.0987 24.127 13.2548 23.863 12.0981 24.4099C12.2972 24.8436 12.5912 25.579 12.8377 26.5313C13.1979 27.9268 13.0747 31.6039 13.0463 32.377V32.3865Z" fill="#559497"/>
<path d="M30.8136 28.7847C31.2592 28.8129 31.6764 28.8224 31.9419 28.8035L32.8995 23.0049C32.1979 22.4864 31.2308 21.8547 30.8041 21.7227C30.7188 21.7604 30.6335 21.7981 30.5576 21.8452C30.5102 21.8829 30.4723 21.9112 30.4344 21.9489C30.4059 21.9772 30.368 21.9867 30.3301 22.0149L30.5387 22.1752V22.1469C30.6619 22.6089 30.861 23.3632 31.1454 24.4758C31.5816 26.1164 31.1265 27.8889 30.8231 28.7847H30.8136Z" fill="#559497"/>
<path d="M35.7817 27.672C36.0093 27.6248 36.2463 27.606 36.4739 27.5871C36.5213 27.5871 36.5687 27.5871 36.6161 27.5871C36.6445 27.5683 36.6824 27.5588 36.7109 27.54C36.7393 27.5211 36.7772 27.5211 36.8057 27.5117C37.7822 26.9648 39.6026 25.9088 39.9534 25.3714C40.4464 24.636 38.5502 24.438 37.8391 23.976C37.4125 23.6931 37.0901 23.7591 36.91 23.8534C36.91 23.8534 36.91 23.8346 36.91 23.8251C36.6919 23.9854 36.4739 24.1363 36.2368 24.2588C36.2179 24.2588 36.2084 24.2588 36.1894 24.2777C36.2463 25.3808 36.1136 26.5406 35.8007 27.6343C35.8007 27.6437 35.7817 27.6531 35.7817 27.6626V27.672Z" fill="#559497"/>
</svg>
