<svg width="30" height="30" viewBox="0 0 30 30" fill="none" xmlns="http://www.w3.org/2000/svg">
<path d="M27.2165 0.686225C27.0837 0.488225 26.8562 0.384511 26.6192 0.412797C26.3916 0.450511 26.1925 0.601368 26.1167 0.818225C25.4056 2.77937 24.9315 3.3168 24.2205 3.74108C23.5094 4.16537 22.3906 4.49537 20.684 5.68337C19.0533 6.8148 18.1431 8.34222 17.5553 9.56794C17.2613 10.1808 17.0338 10.7088 16.8631 11.0671C16.7778 11.2462 16.6925 11.3971 16.6545 11.4537C13.1655 12.1608 11.1366 13.9428 9.96091 15.5645C9.37308 16.3848 8.98437 17.1674 8.69994 17.7331C8.55772 18.0159 8.45343 18.2705 8.3681 18.4025C8.33965 18.4591 8.31119 18.4685 8.29223 18.4779C4.21537 19.0342 1.11508 21.8439 0.015273 27.1145C-0.0321324 27.3125 0.0342386 27.5199 0.166974 27.6708C0.622065 28.1517 1.34263 28.5571 2.27177 28.9248C3.20092 29.2925 4.34811 29.5848 5.59961 29.7168C8.02677 29.9619 10.8806 29.4999 13.175 27.5294C15.3177 27.4539 17.7354 26.3885 19.8023 24.8139C21.8691 23.2394 23.5757 21.1651 24.1351 18.9117C29.71 15.1779 31.483 6.72051 27.207 0.686225H27.2165ZM9.89454 26.6431H9.87558C9.06021 27.2088 7.92248 27.4445 6.82268 27.4539C5.72287 27.4634 4.62306 27.2559 3.99731 26.4357C3.4474 25.7002 3.51379 24.7574 3.86459 23.9937C4.21539 23.2299 4.82217 22.5605 5.54273 22.0514H5.56171C6.32019 21.5234 7.29673 21.2217 8.24484 21.1651C9.19295 21.1085 10.1979 21.3065 10.7573 22.1079C11.7054 23.4751 11.4495 25.5588 9.88507 26.6431H9.89454ZM19.1196 21.6082C18.4086 22.6359 17.2898 23.2205 16.1615 23.4185C15.0333 23.6165 13.8671 23.4374 12.9759 22.8245C12.0752 22.2022 11.6865 21.2217 11.7339 20.2317C11.7813 19.2417 12.1985 18.2328 12.8527 17.2899V17.2711C13.5353 16.2905 14.5687 15.5079 15.659 15.0837C16.209 14.8668 16.7778 14.7348 17.3372 14.7348C17.8966 14.7348 18.4465 14.8857 18.9205 15.2157C19.8781 15.8757 20.2195 17.0637 20.2005 18.2328C20.172 19.4019 19.8023 20.6371 19.1196 21.6177V21.6082ZM26.2968 12.4531C25.8038 13.3677 24.941 13.9522 24.0308 14.2257C23.1301 14.4991 22.1441 14.4802 21.3477 14.0559C20.5513 13.6222 20.1341 12.8019 20.0867 11.9817C20.0393 11.1614 20.2953 10.2845 20.7409 9.46422C21.2149 8.5968 21.9829 7.8708 22.8267 7.4088C23.2534 7.18251 23.718 7.0128 24.1825 6.96565C24.2963 6.95622 24.4101 6.9468 24.5333 6.9468C24.8841 6.95622 25.2349 7.04108 25.5573 7.22022C26.4201 7.69165 26.7898 8.64394 26.8751 9.60565C26.9605 10.5674 26.7614 11.5857 26.2968 12.4531Z" fill="#1F2E69"/>
</svg>
